<?xml version="1.0" encoding="UTF-8"?>
<!DOCTYPE svg PUBLIC "-//W3C//DTD SVG 1.1//EN" "http://www.w3.org/Graphics/SVG/1.1/DTD/svg11.dtd">
<svg xmlns="http://www.w3.org/2000/svg" version="1.1" width="279px" height="170px" style="shape-rendering:geometricPrecision; text-rendering:geometricPrecision; image-rendering:optimizeQuality; fill-rule:evenodd; clip-rule:evenodd" xmlns:xlink="http://www.w3.org/1999/xlink">
<g><path style="opacity:0.998" fill="#295997" d="M 134.5,0.5 C 141.889,0.851389 148.555,3.18472 154.5,7.5C 154.5,8.16667 154.833,8.5 155.5,8.5C 157.477,10.8138 159.477,13.1472 161.5,15.5C 160.395,16.8924 159.061,18.059 157.5,19C 158.056,19.3826 158.389,19.8826 158.5,20.5C 157.504,20.5858 156.671,20.2524 156,19.5C 151.165,22.4885 146.665,25.8219 142.5,29.5C 141.391,29.5569 140.391,29.8902 139.5,30.5C 138.307,30.0296 137.64,29.0296 137.5,27.5C 139.665,17.1208 136.998,8.28751 129.5,1C 131.134,0.506489 132.801,0.339822 134.5,0.5 Z"/></g>
<g><path style="opacity:0.004" fill="#455dc7" d="M 111.5,4.5 C 110.833,4.5 110.5,4.83333 110.5,5.5C 108.025,5.2533 108.025,4.58664 110.5,3.5C 111.107,3.62358 111.44,3.95691 111.5,4.5 Z"/></g>
<g><path style="opacity:0.004" fill="#3828ad" d="M 154.5,7.5 C 155.497,6.28749 156.497,6.45415 157.5,8C 156.906,8.46434 156.239,8.63101 155.5,8.5C 154.833,8.5 154.5,8.16667 154.5,7.5 Z"/></g>
<g><path style="opacity:1" fill="#1f8fb6" d="M 120.5,1.5 C 120.047,2.45837 119.381,3.2917 118.5,4C 130.016,14.775 130.35,25.775 119.5,37C 111.026,41.9701 102.859,41.4701 95,35.5C 94.1482,36.5707 93.3149,37.5707 92.5,38.5C 92.5,37.8333 92.5,37.1667 92.5,36.5C 92.5,34.1667 92.5,31.8333 92.5,29.5C 93.1667,29.5 93.5,29.1667 93.5,28.5C 96.4269,27.5215 98.4269,28.6881 99.5,32C 115.412,37.7477 122.578,32.2477 121,15.5C 118.495,11.1888 114.995,8.18881 110.5,6.5C 110.5,6.16667 110.5,5.83333 110.5,5.5C 111.167,5.5 111.5,5.16667 111.5,4.5C 114.426,3.30237 117.426,2.30237 120.5,1.5 Z"/></g>
<g><path style="opacity:0.016" fill="#4f527d" d="M 180.5,15.5 C 177.833,14.1667 175.167,14.1667 172.5,15.5C 170.833,15.5 169.167,15.5 167.5,15.5C 172.978,13.0933 178.645,12.9267 184.5,15C 183.207,15.49 181.873,15.6567 180.5,15.5 Z"/></g>
<g><path style="opacity:0.999" fill="#27a7c1" d="M 110.5,6.5 C 114.995,8.18881 118.495,11.1888 121,15.5C 122.578,32.2477 115.412,37.7477 99.5,32C 98.4269,28.6881 96.4269,27.5215 93.5,28.5C 93.5,27.8333 93.5,27.1667 93.5,26.5C 95.6439,21.4989 98.4772,16.8322 102,12.5C 104.629,10.1118 107.462,8.11176 110.5,6.5 Z"/></g>
<g><path style="opacity:0.004" fill="#282f39" d="M 162.5,14.5 C 164.332,15.1405 164.665,16.1405 163.5,17.5C 162.614,16.675 162.281,15.675 162.5,14.5 Z"/></g>
<g><path style="opacity:0.02" fill="#64607c" d="M 167.5,15.5 C 167.103,16.525 166.437,16.6917 165.5,16C 166.094,15.5357 166.761,15.369 167.5,15.5 Z"/></g>
<g><path style="opacity:0.004" fill="#2b3f3e" d="M 186.5,17.5 C 187.497,16.2875 188.497,16.4542 189.5,18C 188.906,18.4643 188.239,18.631 187.5,18.5C 187.5,17.8333 187.167,17.5 186.5,17.5 Z"/></g>
<g><path style="opacity:0.986" fill="#4d6682" d="M 172.5,15.5 C 175.167,15.5 177.833,15.5 180.5,15.5C 182.214,16.7384 184.214,17.405 186.5,17.5C 187.167,17.5 187.5,17.8333 187.5,18.5C 189.833,20.1667 191.833,22.1667 193.5,24.5C 193.5,25.1667 193.833,25.5 194.5,25.5C 195.354,27.035 195.354,28.3684 194.5,29.5C 191.493,27.8255 188.16,27.1588 184.5,27.5C 179.078,28.103 175.744,28.103 174.5,27.5C 174.919,24.6755 173.919,22.5088 171.5,21C 171.833,20.6667 172.167,20.3333 172.5,20C 169.635,19.8171 166.969,19.3171 164.5,18.5C 167.252,17.4885 169.919,16.4885 172.5,15.5 Z"/></g>
<g><path style="opacity:0.006" fill="#2b2b2b" d="M 195.5,25.5 C 195.167,25.5 194.833,25.5 194.5,25.5C 193.833,25.5 193.5,25.1667 193.5,24.5C 194.301,22.2071 194.968,22.5404 195.5,25.5 Z"/></g>
<g><path style="opacity:0.016" fill="#40807f" d="M 195.5,25.5 C 196.833,26.1667 196.833,26.1667 195.5,25.5 Z"/></g>
<g><path style="opacity:0.012" fill="#55aaa9" d="M 196.5,27.5 C 197.833,28.1667 197.833,28.1667 196.5,27.5 Z"/></g>
<g><path style="opacity:0.016" fill="#2f3567" d="M 184.5,29.5 C 184.5,29.1667 184.5,28.8333 184.5,28.5C 192.5,28.8333 192.5,29.1667 184.5,29.5 Z"/></g>
<g><path style="opacity:0.024" fill="#53658a" d="M 194.5,29.5 C 194.5,29.8333 194.5,30.1667 194.5,30.5C 190.5,30.1667 190.5,29.8333 194.5,29.5 Z"/></g>
<g><path style="opacity:0.02" fill="#53535c" d="M 178.5,29.5 C 180.5,29.5 182.5,29.5 184.5,29.5C 181.411,30.7846 178.078,31.4512 174.5,31.5C 175.833,30.8333 177.167,30.1667 178.5,29.5 Z"/></g>
<g><path style="opacity:0.004" fill="#000000" d="M 194.5,30.5 C 195.833,31.1667 195.833,31.1667 194.5,30.5 Z"/></g>
<g><path style="opacity:0.016" fill="#3c79a9" d="M 93.5,26.5 C 92.596,27.209 92.2627,28.209 92.5,29.5C 91.5318,31.6074 91.1984,33.9407 91.5,36.5C 90.0883,32.111 90.5883,27.7777 93,23.5C 93.4828,24.448 93.6495,25.448 93.5,26.5 Z"/></g>
<g><path style="opacity:0.008" fill="#222632" d="M 170.5,31.5 C 171.833,31.5 173.167,31.5 174.5,31.5C 173.791,32.404 172.791,32.7373 171.5,32.5C 171.666,37.8437 171.499,43.1771 171,48.5C 170.722,49.4158 170.222,50.0825 169.5,50.5C 169.5,49.5 169.5,48.5 169.5,47.5C 170.488,42.3595 170.821,37.0262 170.5,31.5 Z"/></g>
<g><path style="opacity:0.995" fill="#637381" d="M 164.5,18.5 C 166.969,19.3171 169.635,19.8171 172.5,20C 172.167,20.3333 171.833,20.6667 171.5,21C 173.919,22.5088 174.919,24.6755 174.5,27.5C 175.744,28.103 179.078,28.103 184.5,27.5C 184.5,27.8333 184.5,28.1667 184.5,28.5C 182.265,28.2053 180.265,28.5386 178.5,29.5C 175.505,29.2938 172.838,29.9605 170.5,31.5C 170.167,31.5 169.833,31.5 169.5,31.5C 150.065,36.9267 131.398,44.4267 113.5,54C 108.166,55.2331 102.833,56.3998 97.5,57.5C 95.5767,54.3968 93.41,51.3968 91,48.5C 90.7096,46.0796 90.2096,43.7463 89.5,41.5C 89.5,41.1667 89.5,40.8333 89.5,40.5C 90.6737,39.4863 91.3404,38.153 91.5,36.5C 91.8333,36.5 92.1667,36.5 92.5,36.5C 92.5,37.1667 92.5,37.8333 92.5,38.5C 92.4619,44.2292 94.4619,49.0625 98.5,53C 99.6667,53.1667 100.833,53.3333 102,53.5C 111.277,50.6119 119.777,46.2786 127.5,40.5C 128.167,40.5 128.5,40.1667 128.5,39.5C 129.167,39.5 129.5,39.1667 129.5,38.5C 130.167,38.1667 130.833,37.8333 131.5,37.5C 132.167,37.5 132.5,37.1667 132.5,36.5C 133.167,36.5 133.5,36.1667 133.5,35.5C 133.833,35.5 134.167,35.5 134.5,35.5C 135.167,35.5 135.5,35.1667 135.5,34.5C 136.167,34.5 136.5,34.1667 136.5,33.5C 137.492,33.6716 138.158,33.3382 138.5,32.5C 139.167,32.5 139.5,32.1667 139.5,31.5C 141.027,31.573 142.027,30.9063 142.5,29.5C 147.841,26.4965 153.175,23.4965 158.5,20.5C 160.5,19.8333 162.5,19.1667 164.5,18.5 Z"/></g>
<g><path style="opacity:0.012" fill="#52596d" d="M 89.5,40.5 C 88.8333,40.5 88.5,40.8333 88.5,41.5C 87.2875,40.5029 87.4542,39.5029 89,38.5C 89.4643,39.0944 89.631,39.7611 89.5,40.5 Z"/></g>
<g><path style="opacity:1" fill="#207dad" d="M 126.5,-0.5 C 129.167,-0.5 131.833,-0.5 134.5,-0.5C 134.5,-0.166667 134.5,0.166667 134.5,0.5C 132.801,0.339822 131.134,0.506489 129.5,1C 136.998,8.28751 139.665,17.1208 137.5,27.5C 137.64,29.0296 138.307,30.0296 139.5,30.5C 139.5,30.8333 139.5,31.1667 139.5,31.5C 138.833,31.5 138.5,31.8333 138.5,32.5C 137.508,32.3284 136.842,32.6618 136.5,33.5C 135.833,33.5 135.5,33.8333 135.5,34.5C 134.833,34.5 134.5,34.8333 134.5,35.5C 134.167,35.5 133.833,35.5 133.5,35.5C 132.833,35.5 132.5,35.8333 132.5,36.5C 131.833,36.5 131.5,36.8333 131.5,37.5C 130.833,37.8333 130.167,38.1667 129.5,38.5C 128.833,38.5 128.5,38.8333 128.5,39.5C 127.833,39.5 127.5,39.8333 127.5,40.5C 119.777,46.2786 111.277,50.6119 102,53.5C 100.833,53.3333 99.6667,53.1667 98.5,53C 94.4619,49.0625 92.4619,44.2292 92.5,38.5C 93.3149,37.5707 94.1482,36.5707 95,35.5C 102.859,41.4701 111.026,41.9701 119.5,37C 130.35,25.775 130.016,14.775 118.5,4C 119.381,3.2917 120.047,2.45837 120.5,1.5C 122.626,0.951844 124.626,0.285178 126.5,-0.5 Z"/></g>
<g><path style="opacity:1" fill="#101024" d="M 169.5,31.5 C 169.5,35.5 169.5,39.5 169.5,43.5C 161.842,43.7003 154.508,45.0337 147.5,47.5C 130.94,51.8076 114.273,55.4743 97.5,58.5C 97.5,58.1667 97.5,57.8333 97.5,57.5C 102.833,56.3998 108.166,55.2331 113.5,54C 131.398,44.4267 150.065,36.9267 169.5,31.5 Z"/></g>
<g><path style="opacity:0.999" fill="#293162" d="M 169.5,43.5 C 169.5,44.8333 169.5,46.1667 169.5,47.5C 168.596,48.209 168.263,49.209 168.5,50.5C 167.596,51.209 167.263,52.209 167.5,53.5C 166.662,53.8417 166.328,54.5084 166.5,55.5C 165.662,55.8417 165.328,56.5084 165.5,57.5C 164.662,57.8417 164.328,58.5084 164.5,59.5C 163.833,59.5 163.5,59.8333 163.5,60.5C 162.662,60.8417 162.328,61.5084 162.5,62.5C 161.833,62.5 161.5,62.8333 161.5,63.5C 160.833,63.5 160.5,63.8333 160.5,64.5C 159.833,64.5 159.5,64.8333 159.5,65.5C 158.833,65.5 158.5,65.8333 158.5,66.5C 157.833,66.5 157.5,66.8333 157.5,67.5C 156.833,67.5 156.5,67.8333 156.5,68.5C 155.833,68.5 155.5,68.8333 155.5,69.5C 154.833,69.5 154.5,69.8333 154.5,70.5C 153.508,70.3284 152.842,70.6618 152.5,71.5C 151.833,71.5 151.5,71.8333 151.5,72.5C 150.508,72.3284 149.842,72.6618 149.5,73.5C 148.833,73.5 148.167,73.5 147.5,73.5C 142.143,75.2135 136.643,76.2135 131,76.5C 127.33,76.6174 123.83,75.9507 120.5,74.5C 129.278,71.2805 137.278,66.7805 144.5,61C 148.538,57.5941 151.871,53.5941 154.5,49C 154,48.5 153.5,48 153,47.5C 151.374,47.8541 149.541,47.8541 147.5,47.5C 154.508,45.0337 161.842,43.7003 169.5,43.5 Z"/></g>
<g><path style="opacity:1" fill="#253f76" d="M 147.5,47.5 C 149.541,47.8541 151.374,47.8541 153,47.5C 153.5,48 154,48.5 154.5,49C 151.871,53.5941 148.538,57.5941 144.5,61C 137.278,66.7805 129.278,71.2805 120.5,74.5C 123.83,75.9507 127.33,76.6174 131,76.5C 136.643,76.2135 142.143,75.2135 147.5,73.5C 147.5,73.8333 147.5,74.1667 147.5,74.5C 146.508,74.3284 145.842,74.6618 145.5,75.5C 144.209,75.2627 143.209,75.596 142.5,76.5C 140.901,76.2322 139.568,76.5655 138.5,77.5C 132.131,77.653 125.797,77.3197 119.5,76.5C 118.07,75.4625 116.403,74.7959 114.5,74.5C 114.158,73.6618 113.492,73.3284 112.5,73.5C 110.381,71.6002 108.047,69.9336 105.5,68.5C 105.5,67.8333 105.167,67.5 104.5,67.5C 103.833,66.1667 102.833,65.1667 101.5,64.5C 101.5,63.8333 101.167,63.5 100.5,63.5C 99.9744,61.7697 98.9744,60.4363 97.5,59.5C 97.5,59.1667 97.5,58.8333 97.5,58.5C 114.273,55.4743 130.94,51.8076 147.5,47.5 Z"/></g>
<g><path style="opacity:0.016" fill="#4fbdee" d="M 83.5,50.5 C 81.8684,53.2087 81.3684,52.8753 82,49.5C 83.1068,48.2881 83.6068,48.6214 83.5,50.5 Z"/></g>
<g><path style="opacity:0.02" fill="#3b3952" d="M 168.5,50.5 C 168.833,50.5 169.167,50.5 169.5,50.5C 169.737,51.791 169.404,52.791 168.5,53.5C 168.5,52.5 168.5,51.5 168.5,50.5 Z"/></g>
<g><path style="opacity:0.998" fill="#50adca" d="M 88.5,41.5 C 88.8333,41.5 89.1667,41.5 89.5,41.5C 90.2096,43.7463 90.7096,46.0796 91,48.5C 93.41,51.3968 95.5767,54.3968 97.5,57.5C 97.5,57.8333 97.5,58.1667 97.5,58.5C 95.2646,58.2053 93.2646,58.5386 91.5,59.5C 84.4228,60.1011 81.7561,57.1011 83.5,50.5C 85.4168,47.669 87.0834,44.669 88.5,41.5 Z"/></g>
<g><path style="opacity:0.012" fill="#67c5ff" d="M 80.5,53.5 C 81.525,53.8966 81.6917,54.5632 81,55.5C 80.5357,54.9056 80.369,54.2389 80.5,53.5 Z"/></g>
<g><path style="opacity:0.008" fill="#1c1928" d="M 167.5,53.5 C 167.833,53.5 168.167,53.5 168.5,53.5C 168.771,55.3797 168.104,56.713 166.5,57.5C 166.5,56.8333 166.5,56.1667 166.5,55.5C 167.338,55.1583 167.672,54.4916 167.5,53.5 Z"/></g>
<g><path style="opacity:0.012" fill="#55aaff" d="M 81.5,56.5 C 82.8333,57.1667 82.8333,57.1667 81.5,56.5 Z"/></g>
<g><path style="opacity:0.008" fill="#625478" d="M 165.5,57.5 C 165.833,57.5 166.167,57.5 166.5,57.5C 166.672,58.4916 166.338,59.1583 165.5,59.5C 165.5,58.8333 165.5,58.1667 165.5,57.5 Z"/></g>
<g><path style="opacity:0.016" fill="#498ca3" d="M 91.5,60.5 C 91.5,60.1667 91.5,59.8333 91.5,59.5C 93.5,59.5 95.5,59.5 97.5,59.5C 97.631,60.2389 97.4643,60.9056 97,61.5C 95.3005,60.5939 93.4672,60.2606 91.5,60.5 Z"/></g>
<g><path style="opacity:0.008" fill="#a1e4e4" d="M 91.5,60.5 C 90.3991,61.5983 89.0657,61.765 87.5,61C 88.7932,60.51 90.1266,60.3433 91.5,60.5 Z"/></g>
<g><path style="opacity:0.008" fill="#201e36" d="M 164.5,59.5 C 164.833,59.5 165.167,59.5 165.5,59.5C 165.573,61.0269 164.906,62.0269 163.5,62.5C 163.5,61.8333 163.5,61.1667 163.5,60.5C 164.167,60.5 164.5,60.1667 164.5,59.5 Z"/></g>
<g><path style="opacity:0.02" fill="#333366" d="M 162.5,62.5 C 162.833,62.5 163.167,62.5 163.5,62.5C 163.315,63.1701 162.981,63.1701 162.5,62.5 Z"/></g>
<g><path style="opacity:0.024" fill="#2b2b55" d="M 161.5,63.5 C 161.833,63.5 162.167,63.5 162.5,63.5C 162.315,64.1701 161.981,64.1701 161.5,63.5 Z"/></g>
<g><path style="opacity:0.004" fill="#3f30a2" d="M 100.5,63.5 C 101.167,63.5 101.5,63.8333 101.5,64.5C 101.253,66.9752 100.587,66.9752 99.5,64.5C 99.6236,63.8933 99.9569,63.56 100.5,63.5 Z"/></g>
<g><path style="opacity:0.004" fill="#0d0e27" d="M 160.5,64.5 C 160.833,64.5 161.167,64.5 161.5,64.5C 161.5,65.8333 160.833,66.5 159.5,66.5C 159.5,66.1667 159.5,65.8333 159.5,65.5C 160.167,65.5 160.5,65.1667 160.5,64.5 Z"/></g>
<g><path style="opacity:0.008" fill="#393344" d="M 104.5,67.5 C 105.167,67.5 105.5,67.8333 105.5,68.5C 104.503,69.7125 103.503,69.5458 102.5,68C 103.094,67.5357 103.761,67.369 104.5,67.5 Z"/></g>
<g><path style="opacity:0.004" fill="#170f84" d="M 158.5,66.5 C 158.833,66.5 159.167,66.5 159.5,66.5C 159.5,67.8333 158.833,68.5 157.5,68.5C 157.5,68.1667 157.5,67.8333 157.5,67.5C 158.167,67.5 158.5,67.1667 158.5,66.5 Z"/></g>
<g><path style="opacity:0.02" fill="#003266" d="M 156.5,68.5 C 156.833,68.5 157.167,68.5 157.5,68.5C 157.315,69.1701 156.981,69.1701 156.5,68.5 Z"/></g>
<g><path style="opacity:0.024" fill="#2b2b55" d="M 155.5,69.5 C 155.833,69.5 156.167,69.5 156.5,69.5C 156.315,70.1701 155.981,70.1701 155.5,69.5 Z"/></g>
<g><path style="opacity:0.02" fill="#333366" d="M 154.5,70.5 C 154.833,70.5 155.167,70.5 155.5,70.5C 155.315,71.1701 154.981,71.1701 154.5,70.5 Z"/></g>
<g><path style="opacity:0.008" fill="#59536a" d="M 152.5,72.5 C 152.5,72.1667 152.5,71.8333 152.5,71.5C 153.167,71.5 153.833,71.5 154.5,71.5C 154.158,72.3382 153.492,72.6716 152.5,72.5 Z"/></g>
<g><path style="opacity:0.02" fill="#333366" d="M 151.5,72.5 C 151.833,72.5 152.167,72.5 152.5,72.5C 152.315,73.1701 151.981,73.1701 151.5,72.5 Z"/></g>
<g><path style="opacity:0.012" fill="#3b3949" d="M 149.5,74.5 C 149.5,74.1667 149.5,73.8333 149.5,73.5C 150.167,73.5 150.833,73.5 151.5,73.5C 151.158,74.3382 150.492,74.6716 149.5,74.5 Z"/></g>
<g><path style="opacity:0.012" fill="#1d195d" d="M 112.5,73.5 C 112.842,74.3382 113.508,74.6716 114.5,74.5C 113.151,75.7965 111.818,75.6298 110.5,74C 111.094,73.5357 111.761,73.369 112.5,73.5 Z"/></g>
<g><path style="opacity:0.012" fill="#3e384e" d="M 147.5,75.5 C 147.5,75.1667 147.5,74.8333 147.5,74.5C 148.167,74.5 148.833,74.5 149.5,74.5C 149.158,75.3382 148.492,75.6716 147.5,75.5 Z"/></g>
<g><path style="opacity:0.012" fill="#3f3992" d="M 145.5,76.5 C 145.5,76.1667 145.5,75.8333 145.5,75.5C 146.167,75.5 146.833,75.5 147.5,75.5C 147.158,76.3382 146.492,76.6716 145.5,76.5 Z"/></g>
<g><path style="opacity:0.024" fill="#36326f" d="M 119.5,76.5 C 120.263,77.2679 121.263,77.7679 122.5,78C 120.365,78.6347 118.365,78.3014 116.5,77C 117.448,76.5172 118.448,76.3505 119.5,76.5 Z"/></g>
<g><path style="opacity:0.016" fill="#39334b" d="M 142.5,76.5 C 143.5,76.5 144.5,76.5 145.5,76.5C 143.562,78.1628 141.228,78.8294 138.5,78.5C 138.5,78.1667 138.5,77.8333 138.5,77.5C 140.099,77.7678 141.432,77.4345 142.5,76.5 Z"/></g>
<g><path style="opacity:0.009" fill="#313046" d="M 138.5,78.5 C 133.684,79.6497 128.684,79.8163 123.5,79C 128.489,78.5007 133.489,78.3341 138.5,78.5 Z"/></g>
<g><path style="opacity:0.008" fill="#686760" d="M 157.5,86.5 C 160.939,84.042 164.606,83.8754 168.5,86C 164.838,85.1794 161.172,85.3461 157.5,86.5 Z"/></g>
<g><path style="opacity:0.012" fill="#6e6e6e" d="M 220.5,84.5 C 228.246,84.6184 228.079,85.285 220,86.5C 219.5,86.3333 219,86.1667 218.5,86C 219.416,85.7216 220.082,85.2216 220.5,84.5 Z"/></g>
<g><path style="opacity:0.016" fill="#3b6d91" d="M 14.5,84.5 C 17.1368,86.1538 16.8034,86.6538 13.5,86C 14.056,85.6174 14.3893,85.1174 14.5,84.5 Z"/></g>
<g><path style="opacity:0.016" fill="#3a7cb2" d="M 42.5,86.5 C 36.8236,86.6661 31.1569,86.4994 25.5,86C 26,85.5 26.5,85 27,84.5C 31.6667,85.8333 36.3333,85.8333 41,84.5C 41.7172,85.0442 42.2172,85.7109 42.5,86.5 Z"/></g>
<g><path style="opacity:0.016" fill="#296589" d="M 48.5,86.5 C 45.6644,86.7978 45.1644,86.1311 47,84.5C 47.7172,85.0442 48.2172,85.7109 48.5,86.5 Z"/></g>
<g><path style="opacity:0.016" fill="#306d91" d="M 68.5,84.5 C 71.1368,86.1538 70.8034,86.6538 67.5,86C 68.056,85.6174 68.3893,85.1174 68.5,84.5 Z"/></g>
<g><path style="opacity:0.016" fill="#296589" d="M 96.5,84.5 C 99.1368,86.1538 98.8034,86.6538 95.5,86C 96.056,85.6174 96.3893,85.1174 96.5,84.5 Z"/></g>
<g><path style="opacity:0.016" fill="#3b76b0" d="M 118.5,86.5 C 112.824,86.6661 107.157,86.4994 101.5,86C 102,85.5 102.5,85 103,84.5C 107.667,85.8333 112.333,85.8333 117,84.5C 117.717,85.0442 118.217,85.7109 118.5,86.5 Z"/></g>
<g><path style="opacity:0.016" fill="#306d9d" d="M 122.5,84.5 C 125.137,86.1538 124.803,86.6538 121.5,86C 122.056,85.6174 122.389,85.1174 122.5,84.5 Z"/></g>
<g><path style="opacity:0.024" fill="#2787c1" d="M 132.5,84.5 C 135.649,84.2114 138.649,84.7114 141.5,86C 138.482,85.4351 135.482,85.6018 132.5,86.5C 131.537,86.0302 131.537,85.3635 132.5,84.5 Z"/></g>
<g><path style="opacity:0.016" fill="#3f3f3f" d="M 210.5,84.5 C 211.289,84.7828 211.956,85.2828 212.5,86C 211.167,86.6667 209.833,86.6667 208.5,86C 209.416,85.7216 210.082,85.2216 210.5,84.5 Z"/></g>
<g><path style="opacity:0.015" fill="#6c6c6c" d="M 235.5,84.5 C 239.001,85.7965 242.501,85.7965 246,84.5C 246.5,85 247,85.5 247.5,86C 243.167,86.6667 238.833,86.6667 234.5,86C 235.056,85.6174 235.389,85.1174 235.5,84.5 Z"/></g>
<g><path style="opacity:0.016" fill="#3f3f3f" d="M 252.5,84.5 C 256.373,86.1539 256.04,86.6539 251.5,86C 252.056,85.6174 252.389,85.1174 252.5,84.5 Z"/></g>
<g><path style="opacity:0.016" fill="#666666" d="M 263.5,86.5 C 262.127,86.6567 260.793,86.49 259.5,86C 260.881,84.4658 262.214,84.6325 263.5,86.5 Z"/></g>
<g><path style="opacity:0.004" fill="#00fffe" d="M 42.5,86.5 C 43.8333,87.1667 43.8333,87.1667 42.5,86.5 Z"/></g>
<g><path style="opacity:0.004" fill="#00fffe" d="M 48.5,86.5 C 49.1667,86.5 49.5,86.8333 49.5,87.5C 49.1667,87.1667 48.8333,86.8333 48.5,86.5 Z"/></g>
<g><path style="opacity:0.004" fill="#00fffe" d="M 118.5,86.5 C 119.167,86.5 119.5,86.8333 119.5,87.5C 119.167,87.1667 118.833,86.8333 118.5,86.5 Z"/></g>
<g><path style="opacity:0.016" fill="#7f807f" d="M 157.5,86.5 C 156.833,87.1667 156.833,87.1667 157.5,86.5 Z"/></g>
<g><path style="opacity:0.004" fill="#000000" d="M 263.5,86.5 C 264.167,86.5 264.5,86.8333 264.5,87.5C 264.167,87.1667 263.833,86.8333 263.5,86.5 Z"/></g>
<g><path style="opacity:0.004" fill="#374192" d="M 22.5,87.5 C 24.337,87.6395 24.6704,88.3061 23.5,89.5C 22.7025,89.0431 22.3691,88.3764 22.5,87.5 Z"/></g>
<g><path style="opacity:0.617" fill="#2287b9" d="M 48.5,87.5 C 48.5,93.1667 48.5,98.8333 48.5,104.5C 51.8333,104.5 55.1667,104.5 58.5,104.5C 58.5,105.5 58.5,106.5 58.5,107.5C 53.8333,107.5 49.1667,107.5 44.5,107.5C 44.5,100.833 44.5,94.1667 44.5,87.5C 45.8333,87.5 47.1667,87.5 48.5,87.5 Z"/></g>
<g><path style="opacity:0.004" fill="#000000" d="M 143.5,88.5 C 142.833,87.1667 142.833,87.1667 143.5,88.5 Z"/></g>
<g><path style="opacity:0.004" fill="#3a3932" d="M 230.5,105.5 C 230.5,104.833 230.5,104.167 230.5,103.5C 231.833,102.167 231.833,100.833 230.5,99.5C 231.372,95.4372 231.705,91.4372 231.5,87.5C 232.664,93.8072 232.831,100.141 232,106.5C 231.617,105.944 231.117,105.611 230.5,105.5 Z"/></g>
<g><path style="opacity:0.004" fill="#00fffe" d="M 143.5,88.5 C 144.525,88.8966 144.692,89.5632 144,90.5C 143.536,89.9056 143.369,89.2389 143.5,88.5 Z"/></g>
<g><path style="opacity:0.008" fill="#575757" d="M 156.5,87.5 C 156.5,87.8333 156.5,88.1667 156.5,88.5C 155.833,88.5 155.5,88.8333 155.5,89.5C 154.833,89.5 154.5,89.8333 154.5,90.5C 153.833,90.5 153.5,90.8333 153.5,91.5C 153.167,91.5 152.833,91.5 152.5,91.5C 152.833,89.1667 154.167,87.8333 156.5,87.5 Z"/></g>
<g><path style="opacity:0.561" fill="#747572" d="M 168.5,90.5 C 165.482,90.3354 162.482,90.502 159.5,91C 154.788,94.6136 154.455,98.4469 158.5,102.5C 158.611,103.117 158.944,103.617 159.5,104C 162.367,104.801 165.034,104.634 167.5,103.5C 168.791,104.542 168.791,105.708 167.5,107C 164.518,107.498 161.518,107.665 158.5,107.5C 157.71,106.599 156.71,105.932 155.5,105.5C 155.5,104.833 155.167,104.5 154.5,104.5C 154.5,103.833 154.167,103.5 153.5,103.5C 152.676,100.236 152.342,96.9023 152.5,93.5C 153.338,93.1583 153.672,92.4916 153.5,91.5C 154.167,91.5 154.5,91.1667 154.5,90.5C 155.167,90.5 155.5,90.1667 155.5,89.5C 156.167,89.5 156.5,89.1667 156.5,88.5C 158.55,88.0388 160.55,87.3721 162.5,86.5C 164.115,87.154 165.782,87.654 167.5,88C 168.252,88.6708 168.586,89.5041 168.5,90.5 Z"/></g>
<g><path style="opacity:0.012" fill="#5e5e5e" d="M 169.5,90.5 C 169.351,89.448 169.517,88.448 170,87.5C 170.74,88.7494 170.573,89.7494 169.5,90.5 Z"/></g>
<g><path style="opacity:0.02" fill="#636363" d="M 248.5,87.5 C 249.82,90.428 250.486,93.7614 250.5,97.5C 250.333,100.833 250.167,104.167 250,107.5C 249.714,100.8 249.214,94.1333 248.5,87.5 Z"/></g>
<g><path style="opacity:0.762" fill="#71726f" d="M 251.5,87.5 C 252.833,87.5 254.167,87.5 255.5,87.5C 255.5,94.1667 255.5,100.833 255.5,107.5C 254.167,107.5 252.833,107.5 251.5,107.5C 251.5,100.833 251.5,94.1667 251.5,87.5 Z"/></g>
<g><path style="opacity:0.02" fill="#747471" d="M 256.5,87.5 C 257.82,90.428 258.486,93.7614 258.5,97.5C 258.167,100.833 257.833,104.167 257.5,107.5C 256.503,100.866 256.17,94.1998 256.5,87.5 Z"/></g>
<g><path style="opacity:0.008" fill="#848484" d="M 264.5,87.5 C 265.487,92.3054 265.821,97.3054 265.5,102.5C 267.857,102.337 270.19,102.503 272.5,103C 269.854,103.497 267.187,103.664 264.5,103.5C 264.5,98.1667 264.5,92.8333 264.5,87.5 Z"/></g>
<g><path style="opacity:0.016" fill="#357dac" d="M 49.5,87.5 C 50.4872,92.3054 50.8205,97.3054 50.5,102.5C 52.8568,102.337 55.1902,102.503 57.5,103C 54.854,103.497 52.1873,103.664 49.5,103.5C 49.5,98.1667 49.5,92.8333 49.5,87.5 Z"/></g>
<g><path style="opacity:1" fill="#797a76" d="M 189.5,103.5 C 188.833,103.5 188.5,103.833 188.5,104.5C 184.991,107.115 180.991,108.115 176.5,107.5C 176.5,106.833 176.167,106.5 175.5,106.5C 172.197,103.689 170.53,100.022 170.5,95.5C 173.065,88.2173 178.065,85.7173 185.5,88C 187.667,88.8333 189.167,90.3333 190,92.5C 190.678,96.2211 190.511,99.8878 189.5,103.5 Z M 176.5,92.5 C 176.5,93.5 176.5,94.5 176.5,95.5C 175.566,96.5676 175.232,97.901 175.5,99.5C 174.133,96.9882 174.466,94.6548 176.5,92.5 Z M 184.5,101.5 C 183.833,101.5 183.5,101.833 183.5,102.5C 181.833,102.5 180.167,102.5 178.5,102.5C 177.434,100.299 176.767,97.9653 176.5,95.5C 178.008,92.7498 180.341,91.9164 183.5,93C 184.444,95.7191 184.777,98.5525 184.5,101.5 Z M 186.5,94.5 C 187.643,97.0679 187.476,99.7346 186,102.5C 185.329,103.252 184.496,103.586 183.5,103.5C 183.5,103.167 183.5,102.833 183.5,102.5C 184.167,102.5 184.5,102.167 184.5,101.5C 185.407,99.3432 186.073,97.0098 186.5,94.5 Z"/></g>
<g><path style="opacity:0.833" fill="#2689bc" d="M 119.5,87.5 C 121.167,87.5 122.833,87.5 124.5,87.5C 124.5,94.1667 124.5,100.833 124.5,107.5C 123.167,107.5 121.833,107.5 120.5,107.5C 120.756,100.776 120.423,94.109 119.5,87.5 Z"/></g>
<g><path style="opacity:0.004" fill="#000000" d="M 168.5,90.5 C 168.833,90.5 169.167,90.5 169.5,90.5C 169.315,91.1701 168.981,91.1701 168.5,90.5 Z"/></g>
<g><path style="opacity:0.329" fill="#71726f" d="M 263.5,87.5 C 263.5,93.1667 263.5,98.8333 263.5,104.5C 266.833,104.5 270.167,104.5 273.5,104.5C 273.5,105.5 273.5,106.5 273.5,107.5C 268.833,107.5 264.167,107.5 259.5,107.5C 259.5,100.833 259.5,94.1667 259.5,87.5C 260.833,87.5 262.167,87.5 263.5,87.5 Z"/></g>
<g><path style="opacity:0.703" fill="#298abc" d="M 118.5,87.5 C 118.5,88.5 118.5,89.5 118.5,90.5C 116.167,90.5 113.833,90.5 111.5,90.5C 111.5,96.1667 111.5,101.833 111.5,107.5C 110.5,107.5 109.5,107.5 108.5,107.5C 108.5,101.833 108.5,96.1667 108.5,90.5C 106.167,90.5 103.833,90.5 101.5,90.5C 101.5,89.5 101.5,88.5 101.5,87.5C 107.167,87.5 112.833,87.5 118.5,87.5 Z"/></g>
<g><path style="opacity:0.024" fill="#818180" d="M 177.5,91.5 C 179.833,91.5 182.167,91.5 184.5,91.5C 184.5,92.1667 184.833,92.5 185.5,92.5C 185.328,93.4916 185.662,94.1583 186.5,94.5C 186.073,97.0098 185.407,99.3432 184.5,101.5C 184.777,98.5525 184.444,95.7191 183.5,93C 180.341,91.9164 178.008,92.7498 176.5,95.5C 176.5,94.5 176.5,93.5 176.5,92.5C 177.167,92.5 177.5,92.1667 177.5,91.5 Z"/></g>
<g><path style="opacity:0.018" fill="#747974" d="M 220.5,91.5 C 222.857,91.3367 225.19,91.5034 227.5,92C 225.292,92.1909 223.292,92.6909 221.5,93.5C 220.662,93.1583 220.328,92.4916 220.5,91.5 Z"/></g>
<g><path style="opacity:0.024" fill="#7e7e7e" d="M 238.5,91.5 C 241.518,91.3354 244.518,91.502 247.5,92C 244.833,92.3333 242.167,92.6667 239.5,93C 241.833,93.3333 244.167,93.6667 246.5,94C 243.854,94.4974 241.187,94.6641 238.5,94.5C 238.5,93.5 238.5,92.5 238.5,91.5 Z"/></g>
<g><path style="opacity:0.008" fill="#23667d" d="M 64.5,93.5 C 63.6618,93.8417 63.3284,94.5084 63.5,95.5C 62.3789,93.9106 62.5456,92.2439 64,90.5C 64.4828,91.448 64.6495,92.448 64.5,93.5 Z"/></g>
<g><path style="opacity:0.008" fill="#15949a" d="M 101.5,90.5 C 103.265,91.4614 105.265,91.7947 107.5,91.5C 107.666,96.5111 107.499,101.511 107,106.5C 106.501,101.845 106.334,97.1785 106.5,92.5C 104.833,92.5 103.167,92.5 101.5,92.5C 100.734,111.472 100.734,110.805 101.5,90.5 Z"/></g>
<g><path style="opacity:0.008" fill="#148a96" d="M 118.5,90.5 C 119.266,110.805 119.266,111.472 118.5,92.5C 116.833,92.5 115.167,92.5 113.5,92.5C 113.666,97.5111 113.499,102.511 113,107.5C 112.501,102.177 112.334,96.8437 112.5,91.5C 114.735,91.7947 116.735,91.4614 118.5,90.5 Z"/></g>
<g><path style="opacity:0.644" fill="#737471" d="M 205.5,96.5 C 205.328,97.4916 205.662,98.1583 206.5,98.5C 206.783,99.2891 207.283,99.9558 208,100.5C 208.499,96.1794 208.666,91.8461 208.5,87.5C 209.833,87.5 211.167,87.5 212.5,87.5C 212.5,94.1667 212.5,100.833 212.5,107.5C 210.446,107.635 208.779,106.968 207.5,105.5C 207.5,104.833 207.167,104.5 206.5,104.5C 206.068,103.29 205.401,102.29 204.5,101.5C 204.5,100.833 204.167,100.5 203.5,100.5C 203.5,99.8333 203.167,99.5 202.5,99.5C 202.573,97.9731 201.906,96.9731 200.5,96.5C 200.013,95.5266 199.513,94.5266 199,93.5C 198.501,98.1548 198.334,102.821 198.5,107.5C 197.167,107.5 195.833,107.5 194.5,107.5C 194.5,100.833 194.5,94.1667 194.5,87.5C 195.873,87.3433 197.207,87.51 198.5,88C 200.698,91.0228 203.031,93.8562 205.5,96.5 Z M 207.5,87.5 C 207.833,87.5 208.167,87.5 208.5,87.5C 208.666,91.8461 208.499,96.1794 208,100.5C 207.283,99.9558 206.783,99.2891 206.5,98.5C 207.482,95.0381 207.815,91.3714 207.5,87.5 Z M 200.5,96.5 C 199.518,99.9619 199.185,103.629 199.5,107.5C 199.167,107.5 198.833,107.5 198.5,107.5C 198.334,102.821 198.501,98.1548 199,93.5C 199.513,94.5266 200.013,95.5266 200.5,96.5 Z M 200.5,96.5 C 201.906,96.9731 202.573,97.9731 202.5,99.5C 202.167,99.5 201.833,99.5 201.5,99.5C 200.89,98.609 200.557,97.609 200.5,96.5 Z"/></g>
<g><path style="opacity:0.02" fill="#696969" d="M 207.5,87.5 C 207.815,91.3714 207.482,95.0381 206.5,98.5C 206.672,97.5084 206.338,96.8417 205.5,96.5C 206.088,93.3896 206.755,90.3896 207.5,87.5 Z"/></g>
<g><path style="opacity:0.582" fill="#747572" d="M 246.5,98.5 C 243.5,98.5 240.5,98.5 237.5,98.5C 237.5,100.5 237.5,102.5 237.5,104.5C 241.167,104.5 244.833,104.5 248.5,104.5C 248.5,105.5 248.5,106.5 248.5,107.5C 243.833,107.5 239.167,107.5 234.5,107.5C 234.5,100.833 234.5,94.1667 234.5,87.5C 238.833,87.5 243.167,87.5 247.5,87.5C 247.5,88.5 247.5,89.5 247.5,90.5C 244.167,90.5 240.833,90.5 237.5,90.5C 237.5,92.1667 237.5,93.8333 237.5,95.5C 240.5,95.5 243.5,95.5 246.5,95.5C 246.5,96.5 246.5,97.5 246.5,98.5 Z"/></g>
<g><path style="opacity:0.024" fill="#2a90a4" d="M 21.5,97.5 C 21.6716,96.5084 21.3382,95.8417 20.5,95.5C 20.2342,93.6526 20.5675,92.986 21.5,93.5C 22.7053,94.9948 22.7053,96.3281 21.5,97.5 Z"/></g>
<g><path style="opacity:0.016" fill="#1e87bb" d="M 42.5,90.5 C 43.4889,95.9753 43.8222,101.642 43.5,107.5C 42.5128,102.695 42.1795,97.6946 42.5,92.5C 40.8333,92.5 39.1667,92.5 37.5,92.5C 37.6659,97.5111 37.4993,102.511 37,107.5C 36.5006,102.177 36.334,96.8437 36.5,91.5C 38.7354,91.7947 40.7354,91.4614 42.5,90.5 Z"/></g>
<g><path style="opacity:0.02" fill="#767676" d="M 215.5,93.5 C 215.008,98.3236 214.341,102.99 213.5,107.5C 213.334,100.825 213.5,94.1583 214,87.5C 215.295,89.565 215.795,91.565 215.5,93.5 Z"/></g>
<g><path style="opacity:0.016" fill="#515351" d="M 221.5,94.5 C 221.5,94.1667 221.5,93.8333 221.5,93.5C 224.564,93.1437 227.231,93.9771 229.5,96C 228.906,96.4643 228.239,96.631 227.5,96.5C 227.158,95.6618 226.492,95.3284 225.5,95.5C 224.432,94.5655 223.099,94.2322 221.5,94.5 Z"/></g>
<g><path style="opacity:0.536" fill="#4191be" d="M 42.5,87.5 C 42.5,88.5 42.5,89.5 42.5,90.5C 40.1667,90.5 37.8333,90.5 35.5,90.5C 35.5,96.1667 35.5,101.833 35.5,107.5C 34.1667,107.5 32.8333,107.5 31.5,107.5C 31.3322,87.5111 30.8322,87.5111 30,107.5C 29.5007,102.511 29.3341,97.5111 29.5,92.5C 28.1266,92.6567 26.7932,92.49 25.5,92C 34.8099,91.1719 34.8099,90.6719 25.5,90.5C 25.5,89.5 25.5,88.5 25.5,87.5C 31.1667,87.5 36.8333,87.5 42.5,87.5 Z"/></g>
<g><path style="opacity:0.549" fill="#3c8dbb" d="M 73.5,92.5 C 74.0421,95.9122 75.3754,98.9122 77.5,101.5C 77.4125,104.598 77.9125,104.932 79,102.5C 79.3333,97.5 79.6667,92.5 80,87.5C 80.4996,94.1583 80.6663,100.825 80.5,107.5C 78.8333,107.5 77.1667,107.5 75.5,107.5C 75.0679,106.29 74.4013,105.29 73.5,104.5C 73.5,103.5 73.5,102.5 73.5,101.5C 70.6146,101.194 67.9479,101.527 65.5,102.5C 64.6618,102.842 64.3284,103.508 64.5,104.5C 63.6255,106.69 61.9589,107.69 59.5,107.5C 59.6287,105.784 59.962,104.117 60.5,102.5C 61.3382,102.158 61.6716,101.492 61.5,100.5C 62.5375,99.0697 63.2041,97.403 63.5,95.5C 64.3382,95.1583 64.6716,94.4916 64.5,93.5C 65.5574,91.1363 67.0574,89.1363 69,87.5C 70.9618,88.7615 72.4618,90.4281 73.5,92.5 Z M 68.5,95.5 C 68.6121,91.6607 69.2787,91.6607 70.5,95.5C 70.0302,96.463 69.3635,96.463 68.5,95.5 Z M 68.5,95.5 C 68.8807,96.9311 69.8807,97.7645 71.5,98C 69.8333,98.6667 68.1667,98.6667 66.5,98C 67.0659,97.0053 67.7326,96.172 68.5,95.5 Z"/></g>
<g><path style="opacity:0.016" fill="#4971b7" d="M 74.5,92.5 C 75.525,92.8966 75.6917,93.5632 75,94.5C 74.5357,93.9056 74.369,93.2389 74.5,92.5 Z"/></g>
<g><path style="opacity:0.02" fill="#2590c7" d="M 74.5,92.5 C 74.1667,92.5 73.8333,92.5 73.5,92.5C 73.8333,89.8333 74.1667,89.8333 74.5,92.5 Z"/></g>
<g><path style="opacity:1" fill="#338cbc" d="M 20.5,95.5 C 20.3284,96.4916 20.6618,97.1583 21.5,97.5C 22.5075,100.844 23.5075,104.177 24.5,107.5C 22.0411,107.69 20.3745,106.69 19.5,104.5C 19.5,103.5 19.5,102.5 19.5,101.5C 16.5,101.5 13.5,101.5 10.5,101.5C 10.5,102.5 10.5,103.5 10.5,104.5C 9.59872,105.29 8.93205,106.29 8.5,107.5C 7.5,107.5 6.5,107.5 5.5,107.5C 5.5,106.5 5.5,105.5 5.5,104.5C 6.33825,104.158 6.67158,103.492 6.5,102.5C 8.93032,97.8035 11.2637,92.9702 13.5,88C 14.7839,87.3162 15.9505,87.4829 17,88.5C 18.2126,90.9252 19.3793,93.2585 20.5,95.5 Z M 14.5,95.5 C 14.3505,94.448 14.5172,93.448 15,92.5C 15.8372,94.3506 16.6705,96.1839 17.5,98C 15.8333,98.6667 14.1667,98.6667 12.5,98C 13.0659,97.0053 13.7326,96.172 14.5,95.5 Z M 19.5,104.5 C 19.1667,104.5 18.8333,104.5 18.5,104.5C 17.8478,103.275 16.6811,102.608 15,102.5C 13.3189,102.608 12.1522,103.275 11.5,104.5C 11.1667,104.5 10.8333,104.5 10.5,104.5C 10.5,103.5 10.5,102.5 10.5,101.5C 13.5,101.5 16.5,101.5 19.5,101.5C 19.5,102.5 19.5,103.5 19.5,104.5 Z"/></g>
<g><path style="opacity:0.024" fill="#2b86b4" d="M 125.5,107.5 C 125.334,100.825 125.5,94.1583 126,87.5C 126.704,89.2784 127.204,91.1118 127.5,93C 126.272,97.193 126.272,101.36 127.5,105.5C 127.145,106.522 126.478,107.189 125.5,107.5 Z"/></g>
<g><path style="opacity:0.012" fill="#5c5c5c" d="M 152.5,91.5 C 152.5,92.1667 152.5,92.8333 152.5,93.5C 151.681,96.3054 151.181,99.3054 151,102.5C 149.096,98.4185 149.596,94.7518 152.5,91.5 Z"/></g>
<g><path style="opacity:0.016" fill="#626262" d="M 192.5,87.5 C 193.654,93.987 193.821,100.654 193,107.5C 192.564,105.153 192.064,102.819 191.5,100.5C 191.209,96.1984 191.543,91.8651 192.5,87.5 Z"/></g>
<g><path style="opacity:0.016" fill="#747474" d="M 247.5,98.5 C 247.351,97.448 247.517,96.448 248,95.5C 248.74,96.7494 248.573,97.7494 247.5,98.5 Z"/></g>
<g><path style="opacity:0.012" fill="#5e5e5e" d="M 170.5,95.5 C 169.755,97.6715 169.588,100.005 170,102.5C 168,99.1667 168,95.8333 170,92.5C 170.483,93.448 170.649,94.448 170.5,95.5 Z"/></g>
<g><path style="opacity:1" fill="#2989bb" d="M 92.5,96.5 C 92.3284,97.4916 92.6618,98.1583 93.5,98.5C 93.9867,99.4734 94.4867,100.473 95,101.5C 95.4992,96.8452 95.6658,92.1785 95.5,87.5C 96.8333,87.5 98.1667,87.5 99.5,87.5C 99.5,94.1667 99.5,100.833 99.5,107.5C 98.1667,107.5 96.8333,107.5 95.5,107.5C 95.5,106.833 95.1667,106.5 94.5,106.5C 94.573,104.973 93.9063,103.973 92.5,103.5C 92.5,102.833 92.1667,102.5 91.5,102.5C 91.573,100.973 90.9063,99.9731 89.5,99.5C 89.5,98.8333 89.1667,98.5 88.5,98.5C 88.6716,97.5084 88.3382,96.8417 87.5,96.5C 87.2172,95.7109 86.7172,95.0442 86,94.5C 85.501,98.8206 85.3343,103.154 85.5,107.5C 84.1667,107.5 82.8333,107.5 81.5,107.5C 81.5,100.833 81.5,94.1667 81.5,87.5C 82.8734,87.3433 84.2068,87.51 85.5,88C 87.6976,91.0228 90.031,93.8562 92.5,96.5 Z M 87.5,96.5 C 86.5184,99.9619 86.185,103.629 86.5,107.5C 86.1667,107.5 85.8333,107.5 85.5,107.5C 85.3343,103.154 85.501,98.8206 86,94.5C 86.7172,95.0442 87.2172,95.7109 87.5,96.5 Z M 94.5,87.5 C 94.8333,87.5 95.1667,87.5 95.5,87.5C 95.6658,92.1785 95.4992,96.8452 95,101.5C 94.4867,100.473 93.9867,99.4734 93.5,98.5C 94.4816,95.0381 94.815,91.3714 94.5,87.5 Z M 89.5,99.5 C 90.9063,99.9731 91.573,100.973 91.5,102.5C 90.0937,102.027 89.427,101.027 89.5,99.5 Z M 92.5,103.5 C 93.9063,103.973 94.573,104.973 94.5,106.5C 93.0937,106.027 92.427,105.027 92.5,103.5 Z"/></g>
<g><path style="opacity:0.016" fill="#3680b9" d="M 94.5,87.5 C 94.815,91.3714 94.4816,95.0381 93.5,98.5C 93.6716,97.5084 93.3382,96.8417 92.5,96.5C 93.0885,93.3896 93.7552,90.3896 94.5,87.5 Z"/></g>
<g><path style="opacity:0.02" fill="#48a1e9" d="M 130.5,97.5 C 131.368,99.8919 130.701,100.059 128.5,98C 129.094,97.5357 129.761,97.369 130.5,97.5 Z"/></g>
<g><path style="opacity:0.004" fill="#fefffe" d="M 246.5,98.5 C 246.833,98.5 247.167,98.5 247.5,98.5C 247.315,99.1701 246.981,99.1701 246.5,98.5 Z"/></g>
<g><path style="opacity:0.016" fill="#3887bf" d="M 87.5,96.5 C 87.3284,97.4916 87.6618,98.1583 88.5,98.5C 87.9115,101.61 87.2448,104.61 86.5,107.5C 86.185,103.629 86.5184,99.9619 87.5,96.5 Z"/></g>
<g><path style="opacity:0.016" fill="#4a4c4a" d="M 176.5,95.5 C 176.767,97.9653 177.434,100.299 178.5,102.5C 177.833,102.5 177.167,102.5 176.5,102.5C 176.737,101.209 176.404,100.209 175.5,99.5C 175.232,97.901 175.566,96.5676 176.5,95.5 Z"/></g>
<g><path style="opacity:0.016" fill="#828282" d="M 200.5,96.5 C 200.557,97.609 200.89,98.609 201.5,99.5C 200.833,102.167 200.167,104.833 199.5,107.5C 199.185,103.629 199.518,99.9619 200.5,96.5 Z"/></g>
<g><path style="opacity:0.012" fill="#4f9fcf" d="M 61.5,100.5 C 60.6618,100.842 60.3284,101.508 60.5,102.5C 59.3789,100.911 59.5456,99.2439 61,97.5C 61.4828,98.448 61.6495,99.448 61.5,100.5 Z"/></g>
<g><path style="opacity:0.016" fill="#4a8db8" d="M 77.5,101.5 C 77.369,100.761 77.5357,100.094 78,99.5C 78.6917,100.437 78.525,101.103 77.5,101.5 Z"/></g>
<g><path style="opacity:0.875" fill="#328bbc" d="M 142.5,88.5 C 142.715,90.1788 142.048,91.1788 140.5,91.5C 140.611,92.1174 140.944,92.6174 141.5,93C 139.231,92.6256 136.898,92.6256 134.5,93C 139.833,93.6667 139.833,94.3333 134.5,95C 140.667,95.3269 143.333,98.4935 142.5,104.5C 141.833,104.5 141.5,104.833 141.5,105.5C 137.742,107.254 133.742,107.921 129.5,107.5C 128.374,106.142 128.374,104.808 129.5,103.5C 132.647,104.975 135.647,104.808 138.5,103C 137.359,102.259 137.359,101.425 138.5,100.5C 135.974,99.1028 133.308,98.1028 130.5,97.5C 126.929,91.6329 128.596,87.9662 135.5,86.5C 137.863,87.1702 140.196,87.8368 142.5,88.5 Z M 140.5,91.5 C 137.552,91.6759 134.886,91.6759 132.5,91.5C 135.309,90.1997 137.976,90.1997 140.5,91.5 Z"/></g>
<g><path style="opacity:0.016" fill="#3788c7" d="M 143.5,104.5 C 143.338,102.473 143.505,100.473 144,98.5C 144.789,100.712 144.622,102.712 143.5,104.5 Z"/></g>
<g><path style="opacity:0.031" fill="#7f807f" d="M 158.5,101.5 C 159.833,102.167 159.833,102.167 158.5,101.5 Z"/></g>
<g><path style="opacity:0.008" fill="#606060" d="M 203.5,100.5 C 204.167,100.5 204.5,100.833 204.5,101.5C 204.253,103.975 203.587,103.975 202.5,101.5C 202.624,100.893 202.957,100.56 203.5,100.5 Z"/></g>
<g><path style="opacity:0.008" fill="#777777" d="M 218.5,102.5 C 217.761,102.631 217.094,102.464 216.5,102C 217.437,101.308 218.103,101.475 218.5,102.5 Z"/></g>
<g><path style="opacity:0.016" fill="#1b82b3" d="M 18.5,104.5 C 16.1667,103.167 13.8333,103.167 11.5,104.5C 12.1522,103.275 13.3189,102.608 15,102.5C 16.6811,102.608 17.8478,103.275 18.5,104.5 Z"/></g>
<g><path style="opacity:0.016" fill="#2580b9" d="M 65.5,102.5 C 67.8568,102.337 70.1902,102.503 72.5,103C 68.8801,102.852 66.3801,104.352 65,107.5C 64.5172,106.552 64.3505,105.552 64.5,104.5C 65.3382,104.158 65.6716,103.492 65.5,102.5 Z"/></g>
<g><path style="opacity:0.016" fill="#6f6f6f" d="M 167.5,103.5 C 165.143,103.663 162.81,103.497 160.5,103C 163.039,102.204 165.372,102.371 167.5,103.5 Z"/></g>
<g><path style="opacity:0.016" fill="#717171" d="M 225.5,103.5 C 223.167,103.5 220.833,103.5 218.5,103.5C 218.5,103.167 218.5,102.833 218.5,102.5C 220.527,102.662 222.527,102.495 224.5,102C 223.304,101.346 223.304,100.846 224.5,100.5C 225.386,101.325 225.719,102.325 225.5,103.5 Z"/></g>
<g><path style="opacity:1" fill="#757673" d="M 220.5,91.5 C 219.115,92.9473 219.448,93.9473 221.5,94.5C 222.568,95.4345 223.901,95.7678 225.5,95.5C 225.842,96.3382 226.508,96.6716 227.5,96.5C 228.5,97.5 229.5,98.5 230.5,99.5C 230.5,100.833 230.5,102.167 230.5,103.5C 229.662,103.842 229.328,104.508 229.5,105.5C 228.833,105.5 228.5,105.833 228.5,106.5C 227.508,106.328 226.842,106.662 226.5,107.5C 223.5,107.5 220.5,107.5 217.5,107.5C 216.859,106.518 216.193,105.518 215.5,104.5C 216.325,103.614 217.325,103.281 218.5,103.5C 220.833,104.833 223.167,104.833 225.5,103.5C 226.434,102.432 226.768,101.099 226.5,99.5C 221.385,99.6877 217.718,97.6877 215.5,93.5C 216.547,89.2005 219.38,86.8671 224,86.5C 225.766,87.2335 227.599,87.5668 229.5,87.5C 229.657,88.8734 229.49,90.2068 229,91.5C 226.063,90.1834 223.23,90.1834 220.5,91.5 Z"/></g>
<g><path style="opacity:0.008" fill="#797979" d="M 246.5,99.5 C 237.154,101.142 237.487,102.309 247.5,103C 244.518,103.498 241.518,103.665 238.5,103.5C 238.5,102.167 238.5,100.833 238.5,99.5C 241.167,99.5 243.833,99.5 246.5,99.5 Z"/></g>
<g><path style="opacity:0.016" fill="#2872c2" d="M 6.5,102.5 C 5.66175,102.842 5.32842,103.508 5.5,104.5C 5.16667,104.5 4.83333,104.5 4.5,104.5C 4.31181,102.897 4.81181,101.563 6,100.5C 6.46434,101.094 6.63101,101.761 6.5,102.5 Z"/></g>
<g><path style="opacity:0.016" fill="#007fbf" d="M 142.5,104.5 C 142.833,104.5 143.167,104.5 143.5,104.5C 143.315,105.17 142.981,105.17 142.5,104.5 Z"/></g>
<g><path style="opacity:0.004" fill="#b8b8b8" d="M 153.5,103.5 C 154.167,103.5 154.5,103.833 154.5,104.5C 155.167,104.5 155.5,104.833 155.5,105.5C 155.103,106.525 154.437,106.692 153.5,106C 152.226,105.023 152.226,104.189 153.5,103.5 Z"/></g>
<g><path style="opacity:0.016" fill="#349ebe" d="M 4.5,104.5 C 4.64945,105.552 4.48278,106.552 4,107.5C 3.25988,106.251 3.42654,105.251 4.5,104.5 Z"/></g>
<g><path style="opacity:0.016" fill="#3472b7" d="M 25.5,104.5 C 26.525,104.897 26.6917,105.563 26,106.5C 25.5357,105.906 25.369,105.239 25.5,104.5 Z"/></g>
<g><path style="opacity:0.016" fill="#3380be" d="M 73.5,104.5 C 73.631,105.239 73.4643,105.906 73,106.5C 72.3083,105.563 72.475,104.897 73.5,104.5 Z"/></g>
<g><path style="opacity:0.008" fill="#00807f" d="M 141.5,105.5 C 141.833,105.5 142.167,105.5 142.5,105.5C 142.315,106.17 141.981,106.17 141.5,105.5 Z"/></g>
<g><path style="opacity:0.016" fill="#777777" d="M 169.5,104.5 C 170.525,104.897 170.692,105.563 170,106.5C 169.536,105.906 169.369,105.239 169.5,104.5 Z"/></g>
<g><path style="opacity:0.008" fill="#777777" d="M 189.5,103.5 C 190.713,104.497 190.546,105.497 189,106.5C 188.536,105.906 188.369,105.239 188.5,104.5C 189.167,104.5 189.5,104.167 189.5,103.5 Z"/></g>
<g><path style="opacity:0.004" fill="#a5c291" d="M 206.5,104.5 C 207.167,104.5 207.5,104.833 207.5,105.5C 207.253,107.975 206.587,107.975 205.5,105.5C 205.624,104.893 205.957,104.56 206.5,104.5 Z"/></g>
<g><path style="opacity:0.016" fill="#7f807f" d="M 229.5,105.5 C 229.833,105.5 230.167,105.5 230.5,105.5C 230.315,106.17 229.981,106.17 229.5,105.5 Z"/></g>
<g><path style="opacity:0.004" fill="#a2a2a2" d="M 274.5,104.5 C 275.525,104.897 275.692,105.563 275,106.5C 274.536,105.906 274.369,105.239 274.5,104.5 Z"/></g>
<g><path style="opacity:0.016" fill="#7f807f" d="M 228.5,106.5 C 228.833,106.5 229.167,106.5 229.5,106.5C 229.315,107.17 228.981,107.17 228.5,106.5 Z"/></g>
<g><path style="opacity:0.004" fill="#000000" d="M 8.5,107.5 C 9.83333,108.167 9.83333,108.167 8.5,107.5 Z"/></g>
<g><path style="opacity:0.004" fill="#000000" d="M 24.5,107.5 C 25.8333,108.167 25.8333,108.167 24.5,107.5 Z"/></g>
<g><path style="opacity:0.004" fill="#000000" d="M 43.5,107.5 C 43.8333,107.5 44.1667,107.5 44.5,107.5C 44.3147,108.17 43.9813,108.17 43.5,107.5 Z"/></g>
<g><path style="opacity:0.008" fill="#00807f" d="M 58.5,107.5 C 58.8333,107.5 59.1667,107.5 59.5,107.5C 59.5,107.833 59.5,108.167 59.5,108.5C 59.1667,108.167 58.8333,107.833 58.5,107.5 Z"/></g>
<g><path style="opacity:0.004" fill="#00fffe" d="M 75.5,107.5 C 75.5,107.833 75.5,108.167 75.5,108.5C 74.8299,108.019 74.8299,107.685 75.5,107.5 Z"/></g>
<g><path style="opacity:0.004" fill="#00fffe" d="M 80.5,107.5 C 80.8333,107.5 81.1667,107.5 81.5,107.5C 81.5,107.833 81.5,108.167 81.5,108.5C 81.1667,108.167 80.8333,107.833 80.5,107.5 Z"/></g>
<g><path style="opacity:0.012" fill="#00aaa9" d="M 95.5,107.5 C 95.5,107.833 95.5,108.167 95.5,108.5C 94.8299,108.019 94.8299,107.685 95.5,107.5 Z"/></g>
<g><path style="opacity:0.004" fill="#00fffe" d="M 124.5,107.5 C 124.833,107.5 125.167,107.5 125.5,107.5C 125.315,108.17 124.981,108.17 124.5,107.5 Z"/></g>
<g><path style="opacity:0.02" fill="#707070" d="M 175.5,106.5 C 176.167,106.5 176.5,106.833 176.5,107.5C 175.503,108.713 174.503,108.546 173.5,107C 174.094,106.536 174.761,106.369 175.5,106.5 Z"/></g>
<g><path style="opacity:0.004" fill="#000000" d="M 212.5,107.5 C 212.833,107.5 213.167,107.5 213.5,107.5C 213.315,108.17 212.981,108.17 212.5,107.5 Z"/></g>
<g><path style="opacity:0.016" fill="#137fb4" d="M 24.5,108.5 C 23.7494,109.573 22.7494,109.74 21.5,109C 22.448,108.517 23.448,108.351 24.5,108.5 Z"/></g>
<g><path style="opacity:0.016" fill="#2a8aa9" d="M 32.5,109.5 C 33.2506,108.427 34.2506,108.26 35.5,109C 34.552,109.483 33.552,109.649 32.5,109.5 Z"/></g>
<g><path style="opacity:0.016" fill="#137ac3" d="M 58.5,108.5 C 54.3537,109.647 50.0204,109.814 45.5,109C 49.8206,108.501 54.1539,108.334 58.5,108.5 Z"/></g>
<g><path style="opacity:0.016" fill="#0f8aa9" d="M 59.5,108.5 C 60.552,108.351 61.552,108.517 62.5,109C 61.2506,109.74 60.2506,109.573 59.5,108.5 Z"/></g>
<g><path style="opacity:0.016" fill="#137fb4" d="M 75.5,108.5 C 76.552,108.351 77.552,108.517 78.5,109C 77.2506,109.74 76.2506,109.573 75.5,108.5 Z"/></g>
<g><path style="opacity:0.016" fill="#37a9c9" d="M 81.5,108.5 C 82.552,108.351 83.552,108.517 84.5,109C 83.2506,109.74 82.2506,109.573 81.5,108.5 Z"/></g>
<g><path style="opacity:0.016" fill="#3280b4" d="M 95.5,108.5 C 96.552,108.351 97.552,108.517 98.5,109C 97.2506,109.74 96.2506,109.573 95.5,108.5 Z"/></g>
<g><path style="opacity:0.016" fill="#2f8aa9" d="M 124.5,108.5 C 123.749,109.573 122.749,109.74 121.5,109C 122.448,108.517 123.448,108.351 124.5,108.5 Z"/></g>
<g><path style="opacity:0.016" fill="#2278a8" d="M 129.5,107.5 C 132.641,108.321 135.975,108.821 139.5,109C 135.789,109.825 132.122,109.659 128.5,108.5C 128.624,107.893 128.957,107.56 129.5,107.5 Z"/></g>
<g><path style="opacity:0.016" fill="#646a6f" d="M 158.5,107.5 C 161.305,108.319 164.305,108.819 167.5,109C 163.722,110.516 160.055,110.183 156.5,108C 157.094,107.536 157.761,107.369 158.5,107.5 Z"/></g>
<g><path style="opacity:0.016" fill="#4b4b4b" d="M 194.5,109.5 C 195.601,108.402 196.934,108.235 198.5,109C 197.207,109.49 195.873,109.657 194.5,109.5 Z"/></g>
<g><path style="opacity:0.013" fill="#656565" d="M 212.5,108.5 C 211.399,109.598 210.066,109.765 208.5,109C 209.793,108.51 211.127,108.343 212.5,108.5 Z"/></g>
<g><path style="opacity:0.016" fill="#5d5d5d" d="M 217.5,107.5 C 220.5,108.833 223.5,108.833 226.5,107.5C 227.167,107.5 227.833,107.5 228.5,107.5C 228.389,108.117 228.056,108.617 227.5,109C 223.789,109.825 220.122,109.659 216.5,108.5C 216.624,107.893 216.957,107.56 217.5,107.5 Z"/></g>
<g><path style="opacity:0.016" fill="#70746c" d="M 244.5,110.5 C 244.167,110.5 243.833,110.5 243.5,110.5C 243.167,109.167 242.833,109.167 242.5,110.5C 239.873,109.895 237.207,109.395 234.5,109C 238.833,108.333 243.167,108.333 247.5,109C 246.263,109.232 245.263,109.732 244.5,110.5 Z"/></g>
<g><path style="opacity:0.016" fill="#7b8484" d="M 259.5,109.5 C 263.646,108.353 267.98,108.186 272.5,109C 271.975,109.692 271.308,110.192 270.5,110.5C 266.799,110.053 263.132,109.72 259.5,109.5 Z"/></g>
<g><path style="opacity:0.02" fill="#365f6d" d="M 108.5,109.5 C 108.735,108.903 109.235,108.57 110,108.5C 112.795,109.185 115.628,109.685 118.5,110C 115.112,110.659 111.779,110.492 108.5,109.5 Z"/></g>
<g><path style="opacity:0.02" fill="#3a5f6f" d="M 257.5,111.5 C 255.502,110.852 253.502,110.019 251.5,109C 254.464,108.431 257.13,109.098 259.5,111C 258.906,111.464 258.239,111.631 257.5,111.5 Z"/></g>
<g><path style="opacity:0.008" fill="#334489" d="M 8.5,108.5 C 10.1585,109.181 11.8251,110.015 13.5,111C 12.9056,111.464 12.2389,111.631 11.5,111.5C 10.0484,110.698 8.38172,110.198 6.5,110C 6.16667,109.667 5.83333,109.333 5.5,109C 6.44802,108.517 7.44802,108.351 8.5,108.5 Z"/></g>
<g><path style="opacity:0.012" fill="#393939" d="M 46.5,111.5 C 46.8966,110.475 47.5632,110.308 48.5,111C 47.9056,111.464 47.2389,111.631 46.5,111.5 Z"/></g>
<g><path style="opacity:0.012" fill="#393939" d="M 156.5,111.5 C 156.897,110.475 157.563,110.308 158.5,111C 157.906,111.464 157.239,111.631 156.5,111.5 Z"/></g>
<g><path style="opacity:0.004" fill="#000000" d="M 167.5,113.5 C 165.647,114.614 165.147,113.948 166,111.5C 166.717,112.044 167.217,112.711 167.5,113.5 Z"/></g>
<g><path style="opacity:0.008" fill="#1c7a89" d="M 3.5,112.5 C 4.64528,116.311 4.81194,120.311 4,124.5C 3.50115,120.514 3.33449,116.514 3.5,112.5 Z"/></g>
<g><path style="opacity:1" fill="#396584" d="M 11.5,111.5 C 14.9247,113.949 15.258,116.782 12.5,120C 13.4138,121.406 14.0805,122.906 14.5,124.5C 12.9382,124.267 11.6049,123.6 10.5,122.5C 10.5386,121.244 10.0386,120.244 9,119.5C 8.50649,121.134 8.33982,122.801 8.5,124.5C 7.5,124.5 6.5,124.5 5.5,124.5C 5.5,120.167 5.5,115.833 5.5,111.5C 7.5,111.5 9.5,111.5 11.5,111.5 Z M 8.5,114.5 C 9.5,114.5 10.5,114.5 11.5,114.5C 11.5,115.5 11.5,116.5 11.5,117.5C 10.5,117.5 9.5,117.5 8.5,117.5C 8.5,116.5 8.5,115.5 8.5,114.5 Z M 10.5,122.5 C 9.83333,123.167 9.16667,123.833 8.5,124.5C 8.33982,122.801 8.50649,121.134 9,119.5C 10.0386,120.244 10.5386,121.244 10.5,122.5 Z"/></g>
<g><path style="opacity:0.004" fill="#0000ff" d="M 33.5,113.5 C 32.8333,112.167 32.8333,112.167 33.5,113.5 Z"/></g>
<g><path style="opacity:0.008" fill="#79a9a8" d="M 37.5,113.5 C 37.8966,112.475 38.5632,112.308 39.5,113C 38.9056,113.464 38.2389,113.631 37.5,113.5 Z"/></g>
<g><path style="opacity:0.004" fill="#0000ff" d="M 42.5,113.5 C 42.8966,112.475 43.5632,112.308 44.5,113C 43.9056,113.464 43.2389,113.631 42.5,113.5 Z"/></g>
<g><path style="opacity:0.008" fill="#6d7675" d="M 109.5,124.5 C 108.766,123.122 108.099,121.622 107.5,120C 108.282,117.26 108.782,114.426 109,111.5C 109.499,115.821 109.666,120.154 109.5,124.5 Z"/></g>
<g><path style="opacity:0.004" fill="#11151c" d="M 128.5,112.5 C 130.983,112.73 131.483,113.397 130,114.5C 128.97,114.164 128.47,113.497 128.5,112.5 Z"/></g>
<g><path style="opacity:0.012" fill="#006a6a" d="M 149.5,113.5 C 150.5,112.167 151.5,112.167 152.5,113.5C 151.5,113.5 150.5,113.5 149.5,113.5 Z"/></g>
<g><path style="opacity:0.914" fill="#245b7c" d="M 162.5,114.5 C 162.281,113.325 162.614,112.325 163.5,111.5C 164.798,113.052 164.465,114.052 162.5,114.5 Z"/></g>
<g><path style="opacity:0.004" fill="#1e1b39" d="M 178.5,113.5 C 177.614,114.776 176.614,114.776 175.5,113.5C 176.425,112.438 177.425,112.438 178.5,113.5 Z"/></g>
<g><path style="opacity:0.965" fill="#476484" d="M 242.5,110.5 C 242.833,110.5 243.167,110.5 243.5,110.5C 243.784,112.415 243.451,114.081 242.5,115.5C 242.158,114.662 241.492,114.328 240.5,114.5C 240.527,112.801 241.194,111.467 242.5,110.5 Z"/></g>
<g><path style="opacity:0.004" fill="#2b4756" d="M 27.5,114.5 C 25.6214,114.607 25.2881,114.107 26.5,113C 29.8753,112.368 30.2087,112.868 27.5,114.5 Z"/></g>
<g><path style="opacity:0.012" fill="#294d5c" d="M 35.5,114.5 C 34.5084,114.672 33.8417,114.338 33.5,113.5C 35.8375,111.989 36.5042,112.323 35.5,114.5 Z"/></g>
<g><path style="opacity:0.012" fill="#225160" d="M 58.5,114.5 C 57.8333,114.5 57.1667,114.5 56.5,114.5C 56.0825,113.778 55.4158,113.278 54.5,113C 56.3524,112.227 57.6857,112.727 58.5,114.5 Z"/></g>
<g><path style="opacity:0.012" fill="#2f4783" d="M 72.5,114.5 C 71.8333,114.5 71.1667,114.5 70.5,114.5C 70.1667,113.167 69.8333,113.167 69.5,114.5C 68.1667,114.5 66.8333,114.5 65.5,114.5C 65.1667,113.167 64.8333,113.167 64.5,114.5C 62.6453,114.728 61.8119,114.061 62,112.5C 64.5357,112.858 67.2024,112.858 70,112.5C 71.301,112.639 72.1344,113.305 72.5,114.5 Z"/></g>
<g><path style="opacity:0.012" fill="#254e76" d="M 77.5,114.5 C 75.6214,114.607 75.2881,114.107 76.5,113C 79.8753,112.368 80.2087,112.868 77.5,114.5 Z"/></g>
<g><path style="opacity:0.02" fill="#204f64" d="M 86.5,114.5 C 84.6453,114.728 83.8119,114.061 84,112.5C 84.9947,113.066 85.828,113.733 86.5,114.5 Z"/></g>
<g><path style="opacity:0.02" fill="#336665" d="M 88.5,113.5 C 89.8333,114.167 89.8333,114.167 88.5,113.5 Z"/></g>
<g><path style="opacity:0.004" fill="#19404a" d="M 137.5,114.5 C 136.167,114.5 134.833,114.5 133.5,114.5C 134.634,112.219 135.968,112.219 137.5,114.5 Z"/></g>
<g><path style="opacity:0.016" fill="#404080" d="M 149.5,113.5 C 148.833,114.167 148.833,114.167 149.5,113.5 Z"/></g>
<g><path style="opacity:0.02" fill="#006665" d="M 152.5,113.5 C 153.833,114.167 153.833,114.167 152.5,113.5 Z"/></g>
<g><path style="opacity:0.004" fill="#183f4c" d="M 169.5,114.5 C 168.508,114.672 167.842,114.338 167.5,113.5C 168.738,112.588 170.072,112.421 171.5,113C 170.584,113.278 169.918,113.778 169.5,114.5 Z"/></g>
<g><path style="opacity:0.016" fill="#254a6f" d="M 178.5,113.5 C 179.849,112.203 181.182,112.37 182.5,114C 181.906,114.464 181.239,114.631 180.5,114.5C 180.158,113.662 179.492,113.328 178.5,113.5 Z"/></g>
<g><path style="opacity:0.004" fill="#15a7b6" d="M 209.5,113.5 C 208.923,114.773 208.257,114.773 207.5,113.5C 207.97,112.537 208.637,112.537 209.5,113.5 Z"/></g>
<g><path style="opacity:0.012" fill="#104651" d="M 209.5,113.5 C 210.849,112.203 212.182,112.37 213.5,114C 212.906,114.464 212.239,114.631 211.5,114.5C 211.158,113.662 210.492,113.328 209.5,113.5 Z"/></g>
<g><path style="opacity:0.016" fill="#1d3e6f" d="M 219.5,114.5 C 217.645,114.728 216.812,114.061 217,112.5C 217.995,113.066 218.828,113.733 219.5,114.5 Z"/></g>
<g><path style="opacity:0.008" fill="#1e6383" d="M 227.5,114.5 C 225.621,114.607 225.288,114.107 226.5,113C 229.875,112.368 230.209,112.868 227.5,114.5 Z"/></g>
<g><path style="opacity:0.004" fill="#1a204c" d="M 240.5,114.5 C 240.5,114.833 240.5,115.167 240.5,115.5C 239.833,115.833 239.167,116.167 238.5,116.5C 238.5,115.167 237.833,114.5 236.5,114.5C 237.469,113.691 238.302,112.691 239,111.5C 239.232,112.737 239.732,113.737 240.5,114.5 Z"/></g>
<g><path style="opacity:0.012" fill="#868292" d="M 248.5,111.5 C 249.8,113.223 250.467,115.39 250.5,118C 250.167,120.167 249.833,122.333 249.5,124.5C 248.508,120.217 248.174,115.884 248.5,111.5 Z"/></g>
<g><path style="opacity:0.012" fill="#020150" d="M 272.5,124.5 C 272.334,120.154 272.501,115.821 273,111.5C 273.814,116.02 273.647,120.354 272.5,124.5 Z"/></g>
<g><path style="opacity:0.004" fill="#000000" d="M 42.5,115.5 C 41.8333,114.167 41.8333,114.167 42.5,115.5 Z"/></g>
<g><path style="opacity:0.008" fill="#00807f" d="M 58.5,114.5 C 59.8333,115.167 59.8333,115.167 58.5,114.5 Z"/></g>
<g><path style="opacity:0.008" fill="#00807f" d="M 72.5,114.5 C 73.8333,115.167 73.8333,115.167 72.5,114.5 Z"/></g>
<g><path style="opacity:0.027" fill="#536a94" d="M 155.5,115.5 C 154.475,115.103 154.308,114.437 155,113.5C 155.464,114.094 155.631,114.761 155.5,115.5 Z"/></g>
<g><path style="opacity:0.004" fill="#247776" d="M 230.5,115.5 C 231.623,114.243 232.289,114.576 232.5,116.5C 231.833,116.167 231.167,115.833 230.5,115.5 Z"/></g>
<g><path style="opacity:0.012" fill="#005554" d="M 81.5,115.5 C 82.8333,116.167 82.8333,116.167 81.5,115.5 Z"/></g>
<g><path style="opacity:0.941" fill="#3a6283" d="M 122.5,114.5 C 127.032,116.226 128.198,119.226 126,123.5C 121.028,125.707 118.528,124.04 118.5,118.5C 119.338,118.158 119.672,117.492 119.5,116.5C 120.167,116.5 120.5,116.167 120.5,115.5C 121.492,115.672 122.158,115.338 122.5,114.5 Z M 121.5,117.5 C 122.5,117.5 123.5,117.5 124.5,117.5C 124.5,119.167 124.5,120.833 124.5,122.5C 123.5,122.5 122.5,122.5 121.5,122.5C 121.5,120.833 121.5,119.167 121.5,117.5 Z"/></g>
<g><path style="opacity:0.02" fill="#003266" d="M 146.5,115.5 C 147.833,116.167 147.833,116.167 146.5,115.5 Z"/></g>
<g><path style="opacity:0.941" fill="#3a6483" d="M 169.5,114.5 C 174.463,116.017 175.63,119.017 173,123.5C 169.01,125.503 166.51,124.337 165.5,120C 166.007,117.455 167.341,115.621 169.5,114.5 Z M 168.5,117.5 C 169.5,117.5 170.5,117.5 171.5,117.5C 171.5,119.167 171.5,120.833 171.5,122.5C 170.5,122.5 169.5,122.5 168.5,122.5C 168.5,120.833 168.5,119.167 168.5,117.5 Z"/></g>
<g><path style="opacity:0.611" fill="#346181" d="M 180.5,114.5 C 182.273,117.488 182.94,120.821 182.5,124.5C 181.833,124.5 181.167,124.5 180.5,124.5C 180.5,122.167 180.5,119.833 180.5,117.5C 179.5,117.5 178.5,117.5 177.5,117.5C 177.5,119.833 177.5,122.167 177.5,124.5C 175.612,122.012 174.945,119.012 175.5,115.5C 177.292,115.634 178.958,115.301 180.5,114.5 Z M 180.5,124.5 C 179.691,122.708 179.191,120.708 179,118.5C 178.809,120.708 178.309,122.708 177.5,124.5C 177.5,122.167 177.5,119.833 177.5,117.5C 178.5,117.5 179.5,117.5 180.5,117.5C 180.5,119.833 180.5,122.167 180.5,124.5 Z"/></g>
<g><path style="opacity:0.016" fill="#214080" d="M 195.5,116.5 C 195.369,115.761 195.536,115.094 196,114.5C 196.692,115.437 196.525,116.103 195.5,116.5 Z"/></g>
<g><path style="opacity:0.509" fill="#245b7d" d="M 244.5,110.5 C 245.805,112.397 246.471,114.731 246.5,117.5C 246.167,119.833 245.833,122.167 245.5,124.5C 244.507,119.88 244.173,115.214 244.5,110.5 Z"/></g>
<g><path style="opacity:0.973" fill="#3d607c" d="M 51.5,122.5 C 50.5449,124.71 49.0449,125.043 47,123.5C 45.9216,119.771 45.755,116.104 46.5,112.5C 48.288,112.215 49.9547,112.548 51.5,113.5C 50.4706,113.296 49.4706,113.796 48.5,115C 52.5,116 52.5,117 48.5,118C 49.1667,118.333 49.8333,118.667 50.5,119C 50.1667,120 49.8333,121 49.5,122C 50.0944,122.464 50.7611,122.631 51.5,122.5 Z"/></g>
<g><path style="opacity:0.914" fill="#376080" d="M 64.5,114.5 C 64.8333,114.5 65.1667,114.5 65.5,114.5C 66.6344,116.781 67.9678,116.781 69.5,114.5C 69.8333,114.5 70.1667,114.5 70.5,114.5C 70.8417,115.338 71.5084,115.672 72.5,115.5C 73.299,118.43 73.6323,121.43 73.5,124.5C 72.5,124.5 71.5,124.5 70.5,124.5C 69.1556,115.509 68.489,115.509 68.5,124.5C 67.5,124.5 66.5,124.5 65.5,124.5C 65.8076,122.076 65.4742,119.743 64.5,117.5C 63.8933,117.624 63.56,117.957 63.5,118.5C 62.1667,118.833 62.1667,119.167 63.5,119.5C 65.2838,122.808 64.2838,124.475 60.5,124.5C 60.5,121.5 60.5,118.5 60.5,115.5C 62.099,115.768 63.4324,115.434 64.5,114.5 Z M 65.5,114.5 C 66.8333,114.5 68.1667,114.5 69.5,114.5C 67.9678,116.781 66.6344,116.781 65.5,114.5 Z"/></g>
<g><path style="opacity:0.008" fill="#717171" d="M 98.5,115.5 C 99.525,115.897 99.6917,116.563 99,117.5C 98.5357,116.906 98.369,116.239 98.5,115.5 Z"/></g>
<g><path style="opacity:0.027" fill="#2b5474" d="M 101.5,117.5 C 102.601,116.402 103.934,116.235 105.5,117C 104.207,117.49 102.873,117.657 101.5,117.5 Z"/></g>
<g><path style="opacity:0.024" fill="#4d689d" d="M 200.5,115.5 C 203.082,115.025 205.082,115.692 206.5,117.5C 206.167,117.5 205.833,117.5 205.5,117.5C 204.432,116.566 203.099,116.232 201.5,116.5C 201.5,117.833 201.5,119.167 201.5,120.5C 200.549,119.081 200.216,117.415 200.5,115.5 Z"/></g>
<g><path style="opacity:0.894" fill="#466784" d="M 219.5,114.5 C 222.795,115.136 224.128,117.136 223.5,120.5C 222.935,125.73 222.102,125.73 221,120.5C 220.79,122.058 220.29,123.391 219.5,124.5C 219.083,121.921 219.75,119.754 221.5,118C 220.552,117.517 219.552,117.351 218.5,117.5C 218.5,119.833 218.5,122.167 218.5,124.5C 217.5,124.5 216.5,124.5 215.5,124.5C 215.806,121.615 215.473,118.948 214.5,116.5C 216.167,115.833 217.833,115.167 219.5,114.5 Z M 219.5,124.5 C 219.167,124.5 218.833,124.5 218.5,124.5C 218.5,122.167 218.5,119.833 218.5,117.5C 219.552,117.351 220.552,117.517 221.5,118C 219.75,119.754 219.083,121.921 219.5,124.5 Z"/></g>
<g><path style="opacity:1" fill="#386082" d="M 35.5,114.5 C 36.4916,114.328 37.1583,114.662 37.5,115.5C 35.0485,117.896 34.0485,120.896 34.5,124.5C 33.5,124.5 32.5,124.5 31.5,124.5C 31.5,121.5 31.5,118.5 31.5,115.5C 33.099,115.768 34.4324,115.434 35.5,114.5 Z"/></g>
<g><path style="opacity:0.004" fill="#0000ff" d="M 101.5,117.5 C 101.5,117.833 101.5,118.167 101.5,118.5C 100.83,118.019 100.83,117.685 101.5,117.5 Z"/></g>
<g><path style="opacity:1" fill="#325f7c" d="M 118.5,114.5 C 119.268,113.737 119.768,112.737 120,111.5C 120.333,112.167 120.667,112.833 121,113.5C 122.049,112.483 123.216,112.316 124.5,113C 123.584,113.278 122.918,113.778 122.5,114.5C 121.508,114.328 120.842,114.662 120.5,115.5C 119.833,115.5 119.5,115.833 119.5,116.5C 118.662,116.842 118.328,117.508 118.5,118.5C 116.958,119.301 115.292,119.634 113.5,119.5C 113.5,121.167 113.5,122.833 113.5,124.5C 112.5,124.5 111.5,124.5 110.5,124.5C 110.5,120.167 110.5,115.833 110.5,111.5C 113.167,111.5 115.833,111.5 118.5,111.5C 118.5,112.5 118.5,113.5 118.5,114.5 Z M 118.5,114.5 C 117.249,116.561 115.582,116.894 113.5,115.5C 115.045,114.548 116.712,114.215 118.5,114.5 Z"/></g>
<g><path style="opacity:1" fill="#3c6684" d="M 133.5,114.5 C 133.369,115.239 133.536,115.906 134,116.5C 135.302,115.915 136.469,115.249 137.5,114.5C 139.567,116.547 141.4,116.547 143,114.5C 144.113,115.305 145.279,115.972 146.5,116.5C 146.5,119.167 146.5,121.833 146.5,124.5C 145.833,124.5 145.167,124.5 144.5,124.5C 144.5,122.167 144.5,119.833 144.5,117.5C 143.5,117.5 142.5,117.5 141.5,117.5C 141.5,119.833 141.5,122.167 141.5,124.5C 140.167,124.5 138.833,124.5 137.5,124.5C 137.854,122.459 137.854,120.626 137.5,119C 139.932,117.913 139.598,117.413 136.5,117.5C 136.5,119.833 136.5,122.167 136.5,124.5C 135.5,124.5 134.5,124.5 133.5,124.5C 133.808,122.076 133.474,119.743 132.5,117.5C 131.893,117.624 131.56,117.957 131.5,118.5C 130.539,120.265 130.205,122.265 130.5,124.5C 128.612,122.012 127.945,119.012 128.5,115.5C 130.292,115.634 131.958,115.301 133.5,114.5 Z M 137.5,124.5 C 137.167,124.5 136.833,124.5 136.5,124.5C 136.5,122.167 136.5,119.833 136.5,117.5C 139.598,117.413 139.932,117.913 137.5,119C 137.854,120.626 137.854,122.459 137.5,124.5 Z M 131.5,118.5 C 131.56,117.957 131.893,117.624 132.5,117.5C 133.474,119.743 133.808,122.076 133.5,124.5C 132.833,122.5 132.167,120.5 131.5,118.5 Z M 133.5,114.5 C 134.833,114.5 136.167,114.5 137.5,114.5C 136.469,115.249 135.302,115.915 134,116.5C 133.536,115.906 133.369,115.239 133.5,114.5 Z M 144.5,124.5 C 143.691,122.708 143.191,120.708 143,118.5C 142.809,120.708 142.309,122.708 141.5,124.5C 141.5,122.167 141.5,119.833 141.5,117.5C 142.5,117.5 143.5,117.5 144.5,117.5C 144.5,119.833 144.5,122.167 144.5,124.5 Z"/></g>
<g><path style="opacity:0.004" fill="#00fffe" d="M 193.5,118.5 C 192.833,117.167 192.833,117.167 193.5,118.5 Z"/></g>
<g><path style="opacity:1" fill="#3e6887" d="M 211.5,114.5 C 212.29,115.401 213.29,116.068 214.5,116.5C 214.721,119.279 214.388,121.946 213.5,124.5C 210.812,124.834 208.479,124.168 206.5,122.5C 206.5,120.833 206.5,119.167 206.5,117.5C 208.001,116.248 209.668,115.248 211.5,114.5 Z M 211.5,121.5 C 211.44,122.043 211.107,122.376 210.5,122.5C 209.548,120.955 209.215,119.288 209.5,117.5C 210.5,117.5 211.5,117.5 212.5,117.5C 212.768,119.099 212.434,120.432 211.5,121.5 Z"/></g>
<g><path style="opacity:0.878" fill="#426c89" d="M 257.5,111.5 C 259.972,112.642 260.972,114.642 260.5,117.5C 259.305,117.866 258.639,118.699 258.5,120C 259.414,121.406 260.08,122.906 260.5,124.5C 259.391,124.443 258.391,124.11 257.5,123.5C 257.5,122.833 257.167,122.5 256.5,122.5C 256.539,121.244 256.039,120.244 255,119.5C 254.506,121.134 254.34,122.801 254.5,124.5C 252.771,123.047 251.771,121.047 251.5,118.5C 252.833,116.5 252.833,114.5 251.5,112.5C 253.396,111.534 255.396,111.201 257.5,111.5 Z M 254.5,114.5 C 255.5,114.5 256.5,114.5 257.5,114.5C 257.5,115.5 257.5,116.5 257.5,117.5C 256.5,117.5 255.5,117.5 254.5,117.5C 254.5,116.5 254.5,115.5 254.5,114.5 Z M 256.5,122.5 C 255.662,122.842 255.328,123.508 255.5,124.5C 255.167,124.5 254.833,124.5 254.5,124.5C 254.34,122.801 254.506,121.134 255,119.5C 256.039,120.244 256.539,121.244 256.5,122.5 Z"/></g>
<g><path style="opacity:1" fill="#396584" d="M 271.5,124.5 C 269.744,123.448 269.077,121.781 269.5,119.5C 267.833,119.5 266.167,119.5 264.5,119.5C 264.5,121.167 264.5,122.833 264.5,124.5C 262.993,122.367 261.66,120.033 260.5,117.5C 262.648,117.611 262.981,116.944 261.5,115.5C 263.395,110.275 264.395,110.609 264.5,116.5C 266.167,116.5 267.833,116.5 269.5,116.5C 269.215,114.712 269.548,113.045 270.5,111.5C 271.492,115.783 271.826,120.116 271.5,124.5 Z"/></g>
<g><path style="opacity:0.035" fill="#2b4f64" d="M 265.5,111.5 C 266.186,112.848 267.186,114.015 268.5,115C 267.552,115.483 266.552,115.649 265.5,115.5C 265.5,114.167 265.5,112.833 265.5,111.5 Z"/></g>
<g><path style="opacity:0.02" fill="#2f6373" d="M 27.5,118.5 C 28.5,118.5 29.5,118.5 30.5,118.5C 30.5,119.5 30.5,120.5 30.5,121.5C 29.5,121.5 28.5,121.5 27.5,121.5C 27.5,120.5 27.5,119.5 27.5,118.5 Z"/></g>
<g><path style="opacity:0.027" fill="#496d6c" d="M 63.5,118.5 C 64.8333,119.167 64.8333,119.167 63.5,118.5 Z"/></g>
<g><path style="opacity:0.701" fill="#305f7e" d="M 77.5,114.5 C 78.8333,115.167 80.1667,115.833 81.5,116.5C 81.33,117.822 81.6634,118.989 82.5,120C 80.5,120.333 78.5,120.667 76.5,121C 77.9047,122.269 79.5714,122.769 81.5,122.5C 79.8067,124.766 77.6401,125.1 75,123.5C 73.7795,119.718 74.6128,116.718 77.5,114.5 Z"/></g>
<g><path style="opacity:0.724" fill="#346282" d="M 86.5,114.5 C 87.1667,114.5 87.8333,114.5 88.5,114.5C 88.8333,115.5 89.5,116.167 90.5,116.5C 91.0356,119.698 90.369,122.365 88.5,124.5C 88.5,122.167 88.5,119.833 88.5,117.5C 87.5,117.5 86.5,117.5 85.5,117.5C 85.5,119.833 85.5,122.167 85.5,124.5C 84.448,124.649 83.448,124.483 82.5,124C 83.4438,121.281 83.7771,118.448 83.5,115.5C 84.791,115.737 85.791,115.404 86.5,114.5 Z M 88.5,124.5 C 87.6909,122.708 87.1909,120.708 87,118.5C 86.8091,120.708 86.3091,122.708 85.5,124.5C 85.5,122.167 85.5,119.833 85.5,117.5C 86.5,117.5 87.5,117.5 88.5,117.5C 88.5,119.833 88.5,122.167 88.5,124.5 Z"/></g>
<g><path style="opacity:0.396" fill="#356281" d="M 101.5,118.5 C 102.978,118.238 104.311,118.571 105.5,119.5C 104.833,119.833 104.167,120.167 103.5,120.5C 102.287,120.253 101.62,119.586 101.5,118.5 Z"/></g>
<g><path style="opacity:0.973" fill="#375e81" d="M 162.5,114.5 C 162.5,114.833 162.5,115.167 162.5,115.5C 161.523,118.287 161.19,121.287 161.5,124.5C 159.856,124.714 158.356,124.38 157,123.5C 156.605,120.793 156.105,118.127 155.5,115.5C 156.404,114.791 156.737,113.791 156.5,112.5C 158.144,112.714 159.644,112.38 161,111.5C 161.232,112.737 161.732,113.737 162.5,114.5 Z M 158.5,118.5 C 158.56,117.957 158.893,117.624 159.5,117.5C 160.631,119.074 160.798,120.741 160,122.5C 159.79,120.942 159.29,119.609 158.5,118.5 Z"/></g>
<g><path style="opacity:0.004" fill="#2b97b8" d="M 195.5,116.5 C 195.688,118.103 195.188,119.437 194,120.5C 193.536,119.906 193.369,119.239 193.5,118.5C 194.167,117.833 194.833,117.167 195.5,116.5 Z"/></g>
<g><path style="opacity:0.814" fill="#346283" d="M 20.5,114.5 C 21.4756,115.815 22.4756,117.148 23.5,118.5C 24.2975,118.043 24.6309,117.376 24.5,116.5C 25.7095,116.068 26.7095,115.401 27.5,114.5C 31.5225,116.369 31.1892,117.369 26.5,117.5C 26.5,119.167 26.5,120.833 26.5,122.5C 27.9778,122.238 29.3112,122.571 30.5,123.5C 27.4116,125.089 25.0783,124.422 23.5,121.5C 23.4431,122.609 23.1098,123.609 22.5,124.5C 20.3792,124.675 18.3792,124.341 16.5,123.5C 15.9385,120.103 15.6051,116.769 15.5,113.5C 17.2161,113.629 18.8828,113.962 20.5,114.5 Z M 20.5,114.5 C 22.0618,114.733 23.3951,115.4 24.5,116.5C 24.6309,117.376 24.2975,118.043 23.5,118.5C 22.4756,117.148 21.4756,115.815 20.5,114.5 Z M 23.5,121.5 C 21.3651,122.966 19.3651,122.8 17.5,121C 19.7116,120.211 21.7116,120.378 23.5,121.5 Z"/></g>
<g><path style="opacity:0.271" fill="#356281" d="M 56.5,114.5 C 56.8417,115.338 57.5084,115.672 58.5,115.5C 59.038,117.117 59.3713,118.784 59.5,120.5C 57.712,120.215 56.0453,120.548 54.5,121.5C 56.0064,122.747 57.5064,122.747 59,121.5C 59.4828,122.448 59.6495,123.448 59.5,124.5C 56.4867,124.893 53.8201,124.226 51.5,122.5C 51.163,118.495 52.8297,115.828 56.5,114.5 Z"/></g>
<g><path style="opacity:0.004" fill="#283356" d="M 95.5,118.5 C 97.4646,118.948 97.7979,119.948 96.5,121.5C 95.6143,120.675 95.281,119.675 95.5,118.5 Z"/></g>
<g><path style="opacity:0.012" fill="#2a498b" d="M 100.5,118.5 C 100.631,119.239 100.464,119.906 100,120.5C 99.3083,119.563 99.475,118.897 100.5,118.5 Z"/></g>
<g><path style="opacity:0.008" fill="#406b92" d="M 183.5,124.5 C 183.335,121.482 183.502,118.482 184,115.5C 184.805,118.696 184.638,121.696 183.5,124.5 Z"/></g>
<g><path style="opacity:0.024" fill="#3a558d" d="M 185.5,118.5 C 186.525,118.897 186.692,119.563 186,120.5C 185.536,119.906 185.369,119.239 185.5,118.5 Z"/></g>
<g><path style="opacity:0.699" fill="#2e5f7f" d="M 192.5,118.5 C 192.209,119.649 191.376,120.316 190,120.5C 189.167,120.167 188.333,119.833 187.5,119.5C 189.045,118.548 190.712,118.215 192.5,118.5 Z"/></g>
<g><path style="opacity:0.775" fill="#366483" d="M 200.5,115.5 C 197.979,121.327 199.979,123.66 206.5,122.5C 201.544,125.952 198.211,124.618 196.5,118.5C 197.96,111.766 201.293,110.266 206.5,114C 204.292,114.191 202.292,114.691 200.5,115.5 Z"/></g>
<g><path style="opacity:0.374" fill="#4e6f90" d="M 236.5,114.5 C 236.833,115.5 237.5,116.167 238.5,116.5C 241.055,122.076 239.388,124.742 233.5,124.5C 231.35,122.078 231.017,119.411 232.5,116.5C 233.605,115.4 234.938,114.733 236.5,114.5 Z M 233.5,121.5 C 235.035,120.212 236.701,120.212 238.5,121.5C 236.833,122.666 235.166,122.666 233.5,121.5 Z"/></g>
<g><path style="opacity:0.482" fill="#336383" d="M 240.5,115.5 C 241.167,115.5 241.833,115.5 242.5,115.5C 242.274,118.249 242.607,120.916 243.5,123.5C 242.675,124.386 241.675,124.719 240.5,124.5C 240.5,121.5 240.5,118.5 240.5,115.5 Z"/></g>
<g><path style="opacity:0.035" fill="#1e586c" d="M 205.5,117.5 C 205.5,118.833 205.5,120.167 205.5,121.5C 203.901,121.768 202.568,121.434 201.5,120.5C 202.5,120.5 203.5,120.5 204.5,120.5C 204.263,119.209 204.596,118.209 205.5,117.5 Z"/></g>
<g><path style="opacity:0.027" fill="#16556d" d="M 37.5,123.5 C 37.44,124.043 37.1067,124.376 36.5,124.5C 35.359,122.579 35.1923,120.579 36,118.5C 36.1981,120.382 36.6981,122.048 37.5,123.5 Z"/></g>
<g><path style="opacity:0.004" fill="#000000" d="M 81.5,121.5 C 82.8333,122.167 82.8333,122.167 81.5,121.5 Z"/></g>
<g><path style="opacity:0.68" fill="#315d7c" d="M 94.5,112.5 C 94.281,113.675 94.6143,114.675 95.5,115.5C 96.087,114.767 96.087,113.767 95.5,112.5C 97.2132,113.635 97.8799,115.302 97.5,117.5C 96.5,117.5 95.5,117.5 94.5,117.5C 94.5,119.167 94.5,120.833 94.5,122.5C 96.1788,122.285 97.1788,122.952 97.5,124.5C 95.8561,124.714 94.3561,124.38 93,123.5C 92.6667,121.5 92.3333,119.5 92,117.5C 91.6174,116.944 91.1174,116.611 90.5,116.5C 90.4125,113.402 90.9125,113.068 92,115.5C 92.2355,113.881 93.0689,112.881 94.5,112.5 Z M 94.5,112.5 C 94.8333,112.5 95.1667,112.5 95.5,112.5C 96.087,113.767 96.087,114.767 95.5,115.5C 94.6143,114.675 94.281,113.675 94.5,112.5 Z"/></g>
<g><path style="opacity:0.02" fill="#165f7b" d="M 114.5,120.5 C 115.552,120.351 116.552,120.517 117.5,121C 116.151,121.772 115.318,122.939 115,124.5C 114.51,123.207 114.343,121.873 114.5,120.5 Z"/></g>
<g><path style="opacity:0.78" fill="#316080" d="M 162.5,115.5 C 163.765,116.514 164.431,118.014 164.5,120C 164.167,121.5 163.833,123 163.5,124.5C 162.516,121.572 162.183,118.572 162.5,115.5 Z"/></g>
<g><path style="opacity:0.008" fill="#007777" d="M 195.5,120.5 C 196.525,120.897 196.692,121.563 196,122.5C 195.536,121.906 195.369,121.239 195.5,120.5 Z"/></g>
<g><path style="opacity:0.024" fill="#18486a" d="M 265.5,124.5 C 265.5,123.167 265.5,121.833 265.5,120.5C 266.552,120.351 267.552,120.517 268.5,121C 267.186,121.985 266.186,123.152 265.5,124.5 Z"/></g>
<g><path style="opacity:0.004" fill="#251091" d="M 101.5,123.5 C 102.601,122.402 103.934,122.235 105.5,123C 104.207,123.49 102.873,123.657 101.5,123.5 Z"/></g>
<g><path style="opacity:0.843" fill="#356482" d="M 148.5,124.5 C 146.671,120.459 147.504,117.125 151,114.5C 152,115.167 153,115.833 154,116.5C 154.497,119.146 154.664,121.813 154.5,124.5C 152.5,124.5 150.5,124.5 148.5,124.5 Z M 150.5,120.5 C 151.376,120.369 152.043,120.702 152.5,121.5C 150.192,122.873 149.525,122.54 150.5,120.5 Z"/></g>
<g><path style="opacity:0.004" fill="#241177" d="M 188.5,123.5 C 189.251,122.427 190.251,122.26 191.5,123C 190.552,123.483 189.552,123.649 188.5,123.5 Z"/></g>
<g><path style="opacity:0.004" fill="#1b0e3b" d="M 16.5,123.5 C 16.5,124.833 15.8333,125.5 14.5,125.5C 14.5,125.167 14.5,124.833 14.5,124.5C 15.1667,124.167 15.8333,123.833 16.5,123.5 Z"/></g>
<g><path style="opacity:0.243" fill="#2b5e7e" d="M 37.5,115.5 C 39.3435,117.279 40.0102,119.612 39.5,122.5C 40.5,122.5 41.5,122.5 42.5,122.5C 42.5,120.167 42.5,117.833 42.5,115.5C 43.7479,116.334 44.4146,117.667 44.5,119.5C 44.4087,124.411 42.0754,125.744 37.5,123.5C 37.5,120.833 37.5,118.167 37.5,115.5 Z"/></g>
<g><path style="opacity:0.027" fill="#084570" d="M 41.5,115.5 C 41.6621,117.527 41.4955,119.527 41,121.5C 40.2109,119.288 40.3775,117.288 41.5,115.5 Z"/></g>
<g><path style="opacity:0.012" fill="#4b629c" d="M 98.5,124.5 C 98.369,123.761 98.5357,123.094 99,122.5C 99.6917,123.437 99.525,124.103 98.5,124.5 Z"/></g>
<g><path style="opacity:0.725" fill="#2e607f" d="M 227.5,114.5 C 228.391,115.11 229.391,115.443 230.5,115.5C 229.77,117.045 228.437,117.878 226.5,118C 230.318,118.613 231.318,120.613 229.5,124C 227.741,124.798 226.074,124.631 224.5,123.5C 225.729,122.719 227.062,122.219 228.5,122C 223.704,119.842 223.371,117.342 227.5,114.5 Z"/></g>
<g><path style="opacity:0.02" fill="#254852" d="M 256.5,122.5 C 257.167,122.5 257.5,122.833 257.5,123.5C 257.158,124.338 256.492,124.672 255.5,124.5C 255.328,123.508 255.662,122.842 256.5,122.5 Z"/></g>
<g><path style="opacity:0.004" fill="#000000" d="M 22.5,124.5 C 23.8333,125.167 23.8333,125.167 22.5,124.5 Z"/></g>
<g><path style="opacity:0.004" fill="#000000" d="M 65.5,124.5 C 65.5,124.833 65.5,125.167 65.5,125.5C 64.8299,125.019 64.8299,124.685 65.5,124.5 Z"/></g>
<g><path style="opacity:0.004" fill="#000000" d="M 70.5,124.5 C 70.5,124.833 70.5,125.167 70.5,125.5C 69.8299,125.019 69.8299,124.685 70.5,124.5 Z"/></g>
<g><path style="opacity:0.004" fill="#0000ff" d="M 97.5,124.5 C 97.8333,124.5 98.1667,124.5 98.5,124.5C 98.3147,125.17 97.9813,125.17 97.5,124.5 Z"/></g>
<g><path style="opacity:0.004" fill="#000000" d="M 109.5,124.5 C 109.833,124.5 110.167,124.5 110.5,124.5C 110.315,125.17 109.981,125.17 109.5,124.5 Z"/></g>
<g><path style="opacity:0.004" fill="#00fffe" d="M 130.5,124.5 C 131.833,125.167 131.833,125.167 130.5,124.5 Z"/></g>
<g><path style="opacity:0.004" fill="#0000ff" d="M 146.5,125.5 C 146.5,125.167 146.5,124.833 146.5,124.5C 147.167,124.5 147.833,124.5 148.5,124.5C 148.5,124.833 148.5,125.167 148.5,125.5C 147.833,125.5 147.167,125.5 146.5,125.5 Z"/></g>
<g><path style="opacity:0.004" fill="#000000" d="M 182.5,124.5 C 182.833,124.5 183.167,124.5 183.5,124.5C 183.315,125.17 182.981,125.17 182.5,124.5 Z"/></g>
<g><path style="opacity:0.012" fill="#005554" d="M 213.5,124.5 C 214.833,125.167 214.833,125.167 213.5,124.5 Z"/></g>
<g><path style="opacity:0.004" fill="#0000ff" d="M 233.5,124.5 C 233.5,124.833 233.5,125.167 233.5,125.5C 232.83,125.019 232.83,124.685 233.5,124.5 Z"/></g>
<g><path style="opacity:0.004" fill="#00fffe" d="M 240.5,124.5 C 240.5,124.833 240.5,125.167 240.5,125.5C 239.83,125.019 239.83,124.685 240.5,124.5 Z"/></g>
<g><path style="opacity:0.008" fill="#00807f" d="M 260.5,124.5 C 261.833,125.167 261.833,125.167 260.5,124.5 Z"/></g>
<g><path style="opacity:0.008" fill="#00807f" d="M 264.5,124.5 C 264.833,124.5 265.167,124.5 265.5,124.5C 265.315,125.17 264.981,125.17 264.5,124.5 Z"/></g>
<g><path style="opacity:0.004" fill="#0000ff" d="M 271.5,124.5 C 271.833,124.5 272.167,124.5 272.5,124.5C 272.315,125.17 271.981,125.17 271.5,124.5 Z"/></g>
<g><path style="opacity:0.016" fill="#1c2362" d="M 14.5,125.5 C 14.3036,127.646 13.3036,127.812 11.5,126C 12.448,125.517 13.448,125.351 14.5,125.5 Z"/></g>
<g><path style="opacity:0.012" fill="#1f606e" d="M 22.5,125.5 C 21.1177,127.898 19.451,128.065 17.5,126C 19.18,126.771 20.8467,126.605 22.5,125.5 Z"/></g>
<g><path style="opacity:0.016" fill="#1c4056" d="M 25.5,126.5 C 27.0524,126.419 28.7191,126.252 30.5,126C 28.9769,127.788 27.3102,127.955 25.5,126.5 Z"/></g>
<g><path style="opacity:0.012" fill="#446790" d="M 31.5,126.5 C 32.0768,125.227 32.7435,125.227 33.5,126.5C 33.0302,127.463 32.3635,127.463 31.5,126.5 Z"/></g>
<g><path style="opacity:0.016" fill="#1c385d" d="M 38.5,126.5 C 40.0524,126.419 41.7191,126.252 43.5,126C 41.9769,127.788 40.3102,127.955 38.5,126.5 Z"/></g>
<g><path style="opacity:0.012" fill="#146565" d="M 60.5,126.5 C 61.0768,125.227 61.7435,125.227 62.5,126.5C 62.0302,127.463 61.3635,127.463 60.5,126.5 Z"/></g>
<g><path style="opacity:0.012" fill="#2e2c52" d="M 65.5,125.5 C 67.0281,125.517 67.5281,126.184 67,127.5C 66.2828,126.956 65.7828,126.289 65.5,125.5 Z"/></g>
<g><path style="opacity:0.012" fill="#262441" d="M 70.5,125.5 C 73.3356,125.202 73.8356,125.869 72,127.5C 71.2828,126.956 70.7828,126.289 70.5,125.5 Z"/></g>
<g><path style="opacity:0.024" fill="#2e5a94" d="M 75.5,126.5 C 77.4824,125.998 79.4824,125.832 81.5,126C 79.6804,127.689 77.6804,127.855 75.5,126.5 Z"/></g>
<g><path style="opacity:0.008" fill="#105454" d="M 88.5,125.5 C 91.0009,125.511 91.1676,126.178 89,127.5C 88.5357,126.906 88.369,126.239 88.5,125.5 Z"/></g>
<g><path style="opacity:0.02" fill="#3859a6" d="M 97.5,125.5 C 96.2233,127.914 94.5566,128.081 92.5,126C 94.1341,125.506 95.8008,125.34 97.5,125.5 Z"/></g>
<g><path style="opacity:0.004" fill="#1b192a" d="M 111.5,125.5 C 114.001,125.511 114.168,126.178 112,127.5C 111.536,126.906 111.369,126.239 111.5,125.5 Z"/></g>
<g><path style="opacity:0.012" fill="#12474f" d="M 120.5,126.5 C 122.052,126.419 123.719,126.252 125.5,126C 123.977,127.788 122.31,127.955 120.5,126.5 Z"/></g>
<g><path style="opacity:0.008" fill="#365f5e" d="M 130.5,125.5 C 130.217,126.289 129.717,126.956 129,127.5C 128.472,126.184 128.972,125.517 130.5,125.5 Z"/></g>
<g><path style="opacity:0.004" fill="#1b192a" d="M 134.5,125.5 C 137.001,125.511 137.168,126.178 135,127.5C 134.536,126.906 134.369,126.239 134.5,125.5 Z"/></g>
<g><path style="opacity:0.008" fill="#465454" d="M 146.5,125.5 C 146.217,126.289 145.717,126.956 145,127.5C 144.472,126.184 144.972,125.517 146.5,125.5 Z"/></g>
<g><path style="opacity:0.016" fill="#2e5059" d="M 148.5,125.5 C 154.598,125.174 155.265,125.841 150.5,127.5C 149.478,127.145 148.811,126.478 148.5,125.5 Z"/></g>
<g><path style="opacity:0.012" fill="#384a4a" d="M 162.5,126.5 C 163.077,125.227 163.743,125.227 164.5,126.5C 164.03,127.463 163.363,127.463 162.5,126.5 Z"/></g>
<g><path style="opacity:0.012" fill="#1f4a6c" d="M 167.5,126.5 C 169.052,126.419 170.719,126.252 172.5,126C 170.977,127.788 169.31,127.955 167.5,126.5 Z"/></g>
<g><path style="opacity:0.008" fill="#45807f" d="M 175.5,126.5 C 175.897,125.475 176.563,125.308 177.5,126C 176.906,126.464 176.239,126.631 175.5,126.5 Z"/></g>
<g><path style="opacity:0.012" fill="#0e4a4a" d="M 182.5,125.5 C 182.489,128.001 181.822,128.168 180.5,126C 181.094,125.536 181.761,125.369 182.5,125.5 Z"/></g>
<g><path style="opacity:0.012" fill="#43495b" d="M 211.5,126.5 C 211.842,125.662 212.508,125.328 213.5,125.5C 213.158,126.338 212.492,126.672 211.5,126.5 Z"/></g>
<g><path style="opacity:0.008" fill="#105454" d="M 221.5,125.5 C 224.001,125.511 224.168,126.178 222,127.5C 221.536,126.906 221.369,126.239 221.5,125.5 Z"/></g>
<g><path style="opacity:0.012" fill="#3e3390" d="M 240.5,125.5 C 242.028,125.517 242.528,126.184 242,127.5C 241.283,126.956 240.783,126.289 240.5,125.5 Z"/></g>
<g><path style="opacity:0.012" fill="#384a4a" d="M 244.5,126.5 C 245.077,125.227 245.743,125.227 246.5,126.5C 246.03,127.463 245.363,127.463 244.5,126.5 Z"/></g>
<g><path style="opacity:0.008" fill="#174f5f" d="M 260.5,125.5 C 260.489,128.001 259.822,128.168 258.5,126C 259.094,125.536 259.761,125.369 260.5,125.5 Z"/></g>
<g><path style="opacity:0.008" fill="#2b5454" d="M 264.5,125.5 C 264.217,126.289 263.717,126.956 263,127.5C 262.472,126.184 262.972,125.517 264.5,125.5 Z"/></g>
<g><path style="opacity:0.008" fill="#575468" d="M 271.5,125.5 C 271.217,126.289 270.717,126.956 270,127.5C 269.472,126.184 269.972,125.517 271.5,125.5 Z"/></g>
<g><path style="opacity:0.004" fill="#2c2064" d="M 6.5,125.5 C 9.00092,125.511 9.16758,126.178 7,127.5C 6.53566,126.906 6.36899,126.239 6.5,125.5 Z"/></g>
<g><path style="opacity:0.004" fill="#4053d7" d="M 47.5,126.5 C 48.6009,125.402 49.9343,125.235 51.5,126C 50.3181,127.768 48.9848,127.935 47.5,126.5 Z"/></g>
<g><path style="opacity:0.004" fill="#2c2064" d="M 83.5,125.5 C 86.0009,125.511 86.1676,126.178 84,127.5C 83.5357,126.906 83.369,126.239 83.5,125.5 Z"/></g>
<g><path style="opacity:0.004" fill="#2f5050" d="M 139.5,125.5 C 142.001,125.511 142.168,126.178 140,127.5C 139.536,126.906 139.369,126.239 139.5,125.5 Z"/></g>
<g><path style="opacity:0.004" fill="#4256d7" d="M 157.5,126.5 C 158.601,125.402 159.934,125.235 161.5,126C 160.318,127.768 158.985,127.935 157.5,126.5 Z"/></g>
<g><path style="opacity:0.008" fill="#1d555b" d="M 199.5,126.5 C 201.718,126.422 204.052,126.256 206.5,126C 204.26,127.807 201.927,127.974 199.5,126.5 Z"/></g>
<g><path style="opacity:0.008" fill="#167979" d="M 211.5,126.5 C 210.503,127.713 209.503,127.546 208.5,126C 209.577,125.53 210.577,125.697 211.5,126.5 Z"/></g>
<g><path style="opacity:0.004" fill="#2c2064" d="M 216.5,125.5 C 219.001,125.511 219.168,126.178 217,127.5C 216.536,126.906 216.369,126.239 216.5,125.5 Z"/></g>
<g><path style="opacity:0.008" fill="#20647f" d="M 227.5,125.5 C 231.339,125.612 231.339,126.279 227.5,127.5C 226.537,127.03 226.537,126.363 227.5,125.5 Z"/></g>
<g><path style="opacity:0.008" fill="#226777" d="M 233.5,125.5 C 235.153,126.605 236.82,126.771 238.5,126C 236.549,128.065 234.882,127.898 233.5,125.5 Z"/></g>
<g><path style="opacity:0.004" fill="#302151" d="M 252.5,125.5 C 255.001,125.511 255.168,126.178 253,127.5C 252.536,126.906 252.369,126.239 252.5,125.5 Z"/></g>
<g><path style="opacity:0.016" fill="#648dc3" d="M 117.5,136.5 C 104.856,135.476 92.1896,134.81 79.5,134.5C 70.9497,134.354 62.6164,135.02 54.5,136.5C 52.5,136.5 50.5,136.5 48.5,136.5C 52.5911,135.105 56.9244,134.272 61.5,134C 67.6667,133.833 73.8333,133.667 80,133.5C 92.7508,133.221 105.251,134.221 117.5,136.5 Z"/></g>
<g><path style="opacity:0.012" fill="#637bab" d="M 48.5,136.5 C 48.5,136.833 48.5,137.167 48.5,137.5C 46.2646,137.205 44.2646,137.539 42.5,138.5C 41.1266,138.657 39.7932,138.49 38.5,138C 41.7256,136.801 45.059,136.301 48.5,136.5 Z"/></g>
<g><path style="opacity:0.997" fill="#6093be" d="M 117.5,137.5 C 122.944,138.884 128.611,139.55 134.5,139.5C 140.926,141.229 147.593,142.229 154.5,142.5C 156.265,143.461 158.265,143.795 160.5,143.5C 164.591,144.895 168.924,145.562 173.5,145.5C 177.919,146.972 182.586,147.638 187.5,147.5C 207.925,151.022 228.591,151.855 249.5,150C 255.828,149.307 261.828,147.807 267.5,145.5C 268.791,145.737 269.791,145.404 270.5,144.5C 272.921,144.122 275.254,143.455 277.5,142.5C 277.5,143.167 277.5,143.833 277.5,144.5C 275.5,145.167 274.167,146.5 273.5,148.5C 272.833,148.5 272.5,148.833 272.5,149.5C 270.77,150.026 269.436,151.026 268.5,152.5C 267.833,152.5 267.5,152.833 267.5,153.5C 266.833,153.5 266.5,153.833 266.5,154.5C 265.508,154.328 264.842,154.662 264.5,155.5C 263.833,155.5 263.5,155.833 263.5,156.5C 262.508,156.328 261.842,156.662 261.5,157.5C 260.508,157.328 259.842,157.662 259.5,158.5C 258.508,158.328 257.842,158.662 257.5,159.5C 256.209,159.263 255.209,159.596 254.5,160.5C 252.214,160.595 250.214,161.262 248.5,162.5C 246.901,162.232 245.568,162.566 244.5,163.5C 241.941,163.198 239.607,163.532 237.5,164.5C 225.485,164.576 213.485,164.243 201.5,163.5C 199.393,162.532 197.059,162.198 194.5,162.5C 192.735,161.539 190.735,161.205 188.5,161.5C 186.735,160.539 184.735,160.205 182.5,160.5C 175.762,158.42 168.762,157.087 161.5,156.5C 158.411,155.215 155.078,154.549 151.5,154.5C 150.081,153.549 148.415,153.216 146.5,153.5C 139.762,151.42 132.762,150.087 125.5,149.5C 118.883,147.888 112.217,146.555 105.5,145.5C 102.645,143.75 99.3113,142.917 95.5,143C 79.4746,142.196 63.4746,142.363 47.5,143.5C 45.4311,143.176 45.0977,142.342 46.5,141C 49.6009,140.362 52.2676,139.195 54.5,137.5C 54.5,137.167 54.5,136.833 54.5,136.5C 75.524,135.123 96.524,135.456 117.5,137.5 Z M 160.5,143.5 C 162.833,143.5 165.167,143.5 167.5,143.5C 169.5,144.167 171.5,144.833 173.5,145.5C 168.924,145.562 164.591,144.895 160.5,143.5 Z"/></g>
<g><path style="opacity:0.02" fill="#73a3c3" d="M 117.5,137.5 C 117.5,137.167 117.5,136.833 117.5,136.5C 125.26,136.442 132.927,137.275 140.5,139C 138.527,139.495 136.527,139.662 134.5,139.5C 129.056,138.116 123.389,137.45 117.5,137.5 Z"/></g>
<g><path style="opacity:0.012" fill="#86baba" d="M 31.5,140.5 C 32.2506,139.427 33.2506,139.26 34.5,140C 33.552,140.483 32.552,140.649 31.5,140.5 Z"/></g>
<g><path style="opacity:0.02" fill="#7296c0" d="M 154.5,142.5 C 150.381,141.262 146.047,140.429 141.5,140C 147.911,139.678 154.244,140.345 160.5,142C 158.527,142.495 156.527,142.662 154.5,142.5 Z"/></g>
<g><path style="opacity:0.008" fill="#7f807f" d="M 278.5,141.5 C 278.5,141.833 278.5,142.167 278.5,142.5C 277.83,142.019 277.83,141.685 278.5,141.5 Z"/></g>
<g><path style="opacity:0.02" fill="#7094bb" d="M 167.5,143.5 C 171.56,143.485 175.56,143.985 179.5,145C 177.527,145.495 175.527,145.662 173.5,145.5C 171.5,144.833 169.5,144.167 167.5,143.5 Z"/></g>
<g><path style="opacity:0.008" fill="#54949c" d="M 23.5,144.5 C 22.5084,144.328 21.8417,144.662 21.5,145.5C 19.6214,145.607 19.2881,145.107 20.5,144C 21.7494,143.26 22.7494,143.427 23.5,144.5 Z"/></g>
<g><path style="opacity:0.993" fill="#6495bf" d="M 48.5,137.5 C 50.5,137.5 52.5,137.5 54.5,137.5C 52.2676,139.195 49.6009,140.362 46.5,141C 45.0977,142.342 45.4311,143.176 47.5,143.5C 63.4746,142.363 79.4746,142.196 95.5,143C 99.3113,142.917 102.645,143.75 105.5,145.5C 86.8437,144.497 68.1771,144.33 49.5,145C 61.164,146.368 72.8306,146.534 84.5,145.5C 87.5,145.667 90.5,145.833 93.5,146C 92.8333,146.333 92.1667,146.667 91.5,147C 92.7932,147.49 94.1266,147.657 95.5,147.5C 94.9032,148.139 94.0698,148.472 93,148.5C 87.563,147.064 82.063,146.564 76.5,147C 85.8663,148.394 95.1997,149.894 104.5,151.5C 106.905,152.768 109.572,153.435 112.5,153.5C 113.568,154.434 114.901,154.768 116.5,154.5C 118.905,155.768 121.572,156.435 124.5,156.5C 125.568,157.434 126.901,157.768 128.5,157.5C 129.209,158.404 130.209,158.737 131.5,158.5C 132.568,159.434 133.901,159.768 135.5,159.5C 139.547,161.26 143.88,162.26 148.5,162.5C 156.552,164.902 164.885,166.569 173.5,167.5C 175.03,167.64 176.03,168.307 176.5,169.5C 173.5,169.5 170.5,169.5 167.5,169.5C 157.355,167.773 147.021,166.44 136.5,165.5C 131.089,163.764 125.422,162.764 119.5,162.5C 114.428,160.754 109.095,159.754 103.5,159.5C 101.735,158.539 99.7354,158.205 97.5,158.5C 95.7354,157.539 93.7354,157.205 91.5,157.5C 89.3926,156.532 87.0593,156.198 84.5,156.5C 79.0709,154.988 73.4042,154.321 67.5,154.5C 54.8333,153.167 42.1667,153.167 29.5,154.5C 26.6146,154.194 23.9479,154.527 21.5,155.5C 16.4997,155.498 11.833,156.498 7.5,158.5C 5.90097,158.232 4.56764,158.566 3.5,159.5C 2.5,159.5 1.5,159.5 0.5,159.5C 4.89934,155.122 9.89934,151.455 15.5,148.5C 17.8185,148.008 19.8185,147.008 21.5,145.5C 22.4916,145.672 23.1583,145.338 23.5,144.5C 29.9682,142.638 36.3015,140.638 42.5,138.5C 44.7354,138.795 46.7354,138.461 48.5,137.5 Z M 21.5,155.5 C 17.058,156.99 12.3914,157.99 7.5,158.5C 11.833,156.498 16.4997,155.498 21.5,155.5 Z"/></g>
<g><path style="opacity:0.016" fill="#7283c5" d="M 270.5,144.5 C 269.209,144.263 268.209,144.596 267.5,145.5C 266.167,145.5 264.833,145.5 263.5,145.5C 265.713,143.688 268.047,143.355 270.5,144.5 Z"/></g>
<g><path style="opacity:0.012" fill="#55aaa9" d="M 277.5,144.5 C 277.833,144.5 278.167,144.5 278.5,144.5C 278.5,144.833 278.5,145.167 278.5,145.5C 278.167,145.167 277.833,144.833 277.5,144.5 Z"/></g>
<g><path style="opacity:0.02" fill="#7e8ddc" d="M 187.5,146.5 C 185.143,146.663 182.81,146.497 180.5,146C 183.039,145.204 185.372,145.371 187.5,146.5 Z"/></g>
<g><path style="opacity:0.02" fill="#768ebe" d="M 259.5,146.5 C 260.568,145.566 261.901,145.232 263.5,145.5C 262.432,146.434 261.099,146.768 259.5,146.5 Z"/></g>
<g><path style="opacity:0.024" fill="#6489b0" d="M 95.5,147.5 C 98.5,146.167 101.5,146.167 104.5,147.5C 101.5,147.5 98.5,147.5 95.5,147.5 Z"/></g>
<g><path style="opacity:0.016" fill="#6482b2" d="M 259.5,146.5 C 256.091,147.903 252.425,148.57 248.5,148.5C 251.909,147.097 255.575,146.43 259.5,146.5 Z"/></g>
<g><path style="opacity:0.004" fill="#3e5064" d="M 15.5,148.5 C 13.0248,148.253 13.0248,147.587 15.5,146.5C 16.463,146.97 16.463,147.637 15.5,148.5 Z"/></g>
<g><path style="opacity:0.024" fill="#6191bb" d="M 104.5,147.5 C 109.536,147.588 114.536,148.088 119.5,149C 114.275,149.552 109.275,149.052 104.5,147.5 Z"/></g>
<g><path style="opacity:0.024" fill="#779dc3" d="M 187.5,147.5 C 187.5,147.167 187.5,146.833 187.5,146.5C 210.164,148.166 210.164,148.499 187.5,147.5 Z"/></g>
<g><path style="opacity:0.004" fill="#5babc7" d="M 205.5,149.5 C 211.653,148.347 217.986,148.18 224.5,149C 218.175,149.5 211.842,149.666 205.5,149.5 Z"/></g>
<g><path style="opacity:0.02" fill="#5482a8" d="M 248.5,148.5 C 243.684,149.65 238.684,149.816 233.5,149C 238.489,148.501 243.489,148.334 248.5,148.5 Z"/></g>
<g><path style="opacity:0.02" fill="#6699cc" d="M 273.5,148.5 C 274.833,149.167 274.833,149.167 273.5,148.5 Z"/></g>
<g><path style="opacity:0.024" fill="#6797bb" d="M 125.5,149.5 C 125.5,149.833 125.5,150.167 125.5,150.5C 118.833,150.167 118.833,149.833 125.5,149.5 Z"/></g>
<g><path style="opacity:0.02" fill="#6699cc" d="M 272.5,149.5 C 272.833,149.5 273.167,149.5 273.5,149.5C 273.315,150.17 272.981,150.17 272.5,149.5 Z"/></g>
<g><path style="opacity:0.02" fill="#6e8da9" d="M 104.5,151.5 C 103.391,150.71 102.058,150.21 100.5,150C 103.257,149.416 105.923,149.75 108.5,151C 107.207,151.49 105.873,151.657 104.5,151.5 Z"/></g>
<g><path style="opacity:0.024" fill="#6583a7" d="M 125.5,150.5 C 128.874,150.674 132.207,151.174 135.5,152C 131.888,152.674 128.554,152.174 125.5,150.5 Z"/></g>
<g><path style="opacity:0.016" fill="#90a2c6" d="M 140.5,153.5 C 139.127,153.657 137.793,153.49 136.5,153C 138.066,152.235 139.399,152.402 140.5,153.5 Z"/></g>
<g><path style="opacity:0.004" fill="#5ad1f5" d="M 268.5,152.5 C 270.793,153.301 270.46,153.968 267.5,154.5C 267.5,154.167 267.5,153.833 267.5,153.5C 268.167,153.5 268.5,153.167 268.5,152.5 Z"/></g>
<g><path style="opacity:0.02" fill="#6b8cac" d="M 112.5,153.5 C 115.068,152.357 117.735,152.524 120.5,154C 119.207,154.49 117.873,154.657 116.5,154.5C 115.432,153.566 114.099,153.232 112.5,153.5 Z"/></g>
<g><path style="opacity:0.024" fill="#5882a2" d="M 140.5,153.5 C 142.5,153.5 144.5,153.5 146.5,153.5C 147.919,154.451 149.585,154.784 151.5,154.5C 147.76,155.603 144.094,155.27 140.5,153.5 Z"/></g>
<g><path style="opacity:0.016" fill="#7988c5" d="M 29.5,154.5 C 42.1667,154.5 54.8333,154.5 67.5,154.5C 67.5,154.833 67.5,155.167 67.5,155.5C 54.6557,155.829 41.989,155.495 29.5,154.5 Z"/></g>
<g><path style="opacity:0.02" fill="#6699cc" d="M 266.5,154.5 C 266.833,154.5 267.167,154.5 267.5,154.5C 267.315,155.17 266.981,155.17 266.5,154.5 Z"/></g>
<g><path style="opacity:0.012" fill="#679cb7" d="M 67.5,155.5 C 70.5184,155.335 73.5184,155.502 76.5,156C 73.3035,156.805 70.3035,156.638 67.5,155.5 Z"/></g>
<g><path style="opacity:0.008" fill="#6c80e9" d="M 264.5,156.5 C 264.5,156.167 264.5,155.833 264.5,155.5C 265.167,155.5 265.833,155.5 266.5,155.5C 266.158,156.338 265.492,156.672 264.5,156.5 Z"/></g>
<g><path style="opacity:0.016" fill="#57799d" d="M 124.5,156.5 C 128.371,155.442 132.037,156.109 135.5,158.5C 134.167,158.5 132.833,158.5 131.5,158.5C 130.791,157.596 129.791,157.263 128.5,157.5C 127.432,156.566 126.099,156.232 124.5,156.5 Z"/></g>
<g><path style="opacity:0.024" fill="#5580aa" d="M 263.5,156.5 C 263.833,156.5 264.167,156.5 264.5,156.5C 264.315,157.17 263.981,157.17 263.5,156.5 Z"/></g>
<g><path style="opacity:0.016" fill="#6799c4" d="M 161.5,156.5 C 163.167,157.167 164.833,157.833 166.5,158.5C 163.09,158.543 159.757,158.043 156.5,157C 158.134,156.506 159.801,156.34 161.5,156.5 Z"/></g>
<g><path style="opacity:0.008" fill="#7889ed" d="M 261.5,158.5 C 261.5,158.167 261.5,157.833 261.5,157.5C 262.167,157.5 262.833,157.5 263.5,157.5C 263.158,158.338 262.492,158.672 261.5,158.5 Z"/></g>
<g><path style="opacity:0.008" fill="#6586aa" d="M 84.5,156.5 C 86.6074,157.468 88.9407,157.802 91.5,157.5C 93.2646,158.461 95.2646,158.795 97.5,158.5C 97.5,158.833 97.5,159.167 97.5,159.5C 90.7881,159.089 84.1214,158.256 77.5,157C 79.8098,156.503 82.1432,156.337 84.5,156.5 Z"/></g>
<g><path style="opacity:0.008" fill="#7080a6" d="M 135.5,159.5 C 135.5,159.167 135.5,158.833 135.5,158.5C 137.415,158.216 139.081,158.549 140.5,159.5C 138.833,159.5 137.167,159.5 135.5,159.5 Z"/></g>
<g><path style="opacity:0.02" fill="#7487c8" d="M 166.5,158.5 C 168.199,158.34 169.866,158.506 171.5,159C 169.613,159.78 167.946,159.613 166.5,158.5 Z"/></g>
<g><path style="opacity:0.008" fill="#7b8898" d="M 259.5,159.5 C 259.5,159.167 259.5,158.833 259.5,158.5C 260.167,158.5 260.833,158.5 261.5,158.5C 261.158,159.338 260.492,159.672 259.5,159.5 Z"/></g>
<g><path style="opacity:0.004" fill="#000000" d="M -0.5,159.5 C -0.166667,159.5 0.166667,159.5 0.5,159.5C 0.31468,160.17 -0.0186536,160.17 -0.5,159.5 Z"/></g>
<g><path style="opacity:0.024" fill="#6aa6b6" d="M 3.5,159.5 C 8.56394,159.698 8.39728,160.365 3,161.5C 2.5,161.333 2,161.167 1.5,161C 2.4158,160.722 3.08247,160.222 3.5,159.5 Z"/></g>
<g><path style="opacity:0.024" fill="#849dbb" d="M 140.5,159.5 C 142.099,159.232 143.432,159.566 144.5,160.5C 142.901,160.768 141.568,160.434 140.5,159.5 Z"/></g>
<g><path style="opacity:0.02" fill="#599ac4" d="M 176.5,160.5 C 175.127,160.657 173.793,160.49 172.5,160C 174.066,159.235 175.399,159.402 176.5,160.5 Z"/></g>
<g><path style="opacity:0.008" fill="#7280e2" d="M 257.5,160.5 C 257.5,160.167 257.5,159.833 257.5,159.5C 258.167,159.5 258.833,159.5 259.5,159.5C 259.158,160.338 258.492,160.672 257.5,160.5 Z"/></g>
<g><path style="opacity:0.012" fill="#72a0c0" d="M 97.5,159.5 C 99.5,159.5 101.5,159.5 103.5,159.5C 104.952,160.302 106.618,160.802 108.5,161C 104.583,161.567 100.917,161.067 97.5,159.5 Z"/></g>
<g><path style="opacity:0.02" fill="#629dc3" d="M 144.5,160.5 C 145.552,160.351 146.552,160.517 147.5,161C 146.251,161.74 145.251,161.573 144.5,160.5 Z"/></g>
<g><path style="opacity:0.02" fill="#5b8da1" d="M 176.5,160.5 C 178.5,160.5 180.5,160.5 182.5,160.5C 184.265,161.461 186.265,161.795 188.5,161.5C 188.5,161.833 188.5,162.167 188.5,162.5C 184.236,162.656 180.236,161.989 176.5,160.5 Z"/></g>
<g><path style="opacity:0.02" fill="#596eb5" d="M 254.5,160.5 C 255.5,160.5 256.5,160.5 257.5,160.5C 256.201,162.099 254.535,162.599 252.5,162C 253.416,161.722 254.082,161.222 254.5,160.5 Z"/></g>
<g><path style="opacity:0.008" fill="#6e8ba3" d="M 148.5,162.5 C 151.717,161.405 155.05,161.571 158.5,163C 155.174,163.172 151.841,163.005 148.5,162.5 Z"/></g>
<g><path style="opacity:0.024" fill="#657ca6" d="M 119.5,162.5 C 121.167,163.167 122.833,163.833 124.5,164.5C 121.09,164.543 117.757,164.043 114.5,163C 116.134,162.506 117.801,162.34 119.5,162.5 Z"/></g>
<g><path style="opacity:0.024" fill="#749ac6" d="M 188.5,162.5 C 190.5,162.5 192.5,162.5 194.5,162.5C 196.607,163.468 198.941,163.802 201.5,163.5C 204.305,164.319 207.305,164.819 210.5,165C 202.885,165.599 195.552,164.766 188.5,162.5 Z"/></g>
<g><path style="opacity:0.016" fill="#8aa1d6" d="M 124.5,164.5 C 126.527,164.338 128.527,164.505 130.5,165C 128.288,165.789 126.288,165.622 124.5,164.5 Z"/></g>
<g><path style="opacity:0.016" fill="#619cbe" d="M 248.5,162.5 C 251.598,162.413 251.932,162.913 249.5,164C 245.582,165.156 241.582,165.656 237.5,165.5C 237.5,165.167 237.5,164.833 237.5,164.5C 240.059,164.802 242.393,164.468 244.5,163.5C 246.099,163.768 247.432,163.434 248.5,162.5 Z"/></g>
<g><path style="opacity:0.024" fill="#6e92bb" d="M 237.5,165.5 C 229.01,166.657 220.343,166.824 211.5,166C 220.16,165.5 228.827,165.334 237.5,165.5 Z"/></g>
<g><path style="opacity:0.008" fill="#7c95bd" d="M 136.5,165.5 C 140.619,166.738 144.953,167.571 149.5,168C 143.401,168.429 137.401,167.763 131.5,166C 133.134,165.506 134.801,165.34 136.5,165.5 Z"/></g>
<g><path style="opacity:0.024" fill="#5b7bc4" d="M 150.5,169.5 C 152.833,168.167 155.167,168.167 157.5,169.5C 155.167,169.5 152.833,169.5 150.5,169.5 Z"/></g>
<g><path style="opacity:0.004" fill="#cfb1ff" d="M 178.5,169.5 C 178.167,169.5 177.833,169.5 177.5,169.5C 177.833,166.833 178.167,166.833 178.5,169.5 Z"/></g>
</svg>
